<svg width="1440" height="50" viewBox="0 0 1440 50" fill="none" xmlns="http://www.w3.org/2000/svg">
<path fill-rule="evenodd" clip-rule="evenodd" d="M96.5558 45.8066C96.761 41.8589 97.5127 38.7977 98.4381 36.0221C99.193 38.8508 99.7478 42.0028 99.9038 45.8066H96.5558ZM123.047 45.8066C123.202 42.0028 123.757 38.8508 124.511 36.0221C125.272 38.3052 125.916 40.781 126.234 43.7846C125.992 44.4597 125.76 45.1337 125.538 45.8066H123.047ZM136.601 45.8066C134.06 38.0573 136.32 29.3463 139.595 18.7218C137.214 21.9756 134.981 25.4673 132.962 29.0851C132.157 25.433 131.28 21.8107 130.342 18.2603C130.956 15.415 131.348 12.2077 131.348 8.36183C130.933 10.8276 130.285 13.03 129.469 15.0431C128.073 10.0208 126.559 5.17116 124.957 0.608154C125.942 7.26396 126.808 13.4561 127.387 19.2741C126.106 21.4798 124.638 23.4763 123.111 25.4053C121.608 22.8798 120.404 20.0156 119.804 16.4685C119.804 21.0216 120.496 24.4502 121.434 27.4804C119.94 29.3043 118.432 31.1127 117.021 33.0306C117.12 24.272 119.238 14.6192 121.923 3.614C118.539 9.45859 115.402 15.8089 112.646 22.3806C113.39 17.1968 114.505 11.6798 115.771 5.74997C111.7 13.7803 108.062 22.8123 105.182 32.0368C103.992 30.4818 102.749 28.9867 101.515 27.4804C102.453 24.4502 103.146 21.0216 103.146 16.4685C102.545 20.0156 101.342 22.8809 99.8399 25.4064C98.0026 23.0856 96.2512 20.6641 94.8044 17.8995C95.6565 13.3919 96.7641 8.64404 97.9922 3.614C96.1967 6.71503 94.4715 9.95772 92.8352 13.3C92.3211 11.7705 91.9003 10.1348 91.6009 8.36183C91.6009 9.97653 91.671 11.4772 91.7966 12.8872C90.5351 18.7716 87.3463 24.8431 84.2192 30.9068C83.6842 29.2323 83.1241 27.5667 82.5431 25.9133C83.2895 21.9036 84.3448 17.6516 85.533 13.1063C83.9009 15.7359 82.3379 18.4961 80.8649 21.3436C78.7816 15.8964 76.4648 10.6372 73.9879 5.74997C75.7027 13.7848 77.1401 21.0625 77.7546 27.7781C76.3915 30.8072 75.1363 33.8983 74.0151 37.0037C72.2123 35.5251 70.3227 34.1108 68.5482 32.61C66.2346 25.5425 63.4069 18.6587 60.2767 12.481C61.334 17.4336 62.2658 22.0453 62.8918 26.3792C62.1297 25.1231 61.5225 23.7563 61.1257 22.2334C61.1257 26.3051 62.1705 29.2744 63.5231 31.9228C63.6131 33.0815 63.6728 34.2192 63.6979 35.3392C60.0463 31.7048 56.3414 28.119 55.1228 22.2334C55.1228 32.9952 60.9142 36.0663 61.6837 45.8066H59.3973V50.1759H138.735V45.8066H136.601ZM93.0906 34.3299C93.0477 30.7441 93.3617 27.0089 93.9302 23.0923C94.729 25.5337 95.6408 27.7936 96.5098 30.1233C95.3833 31.5399 94.217 32.9133 93.0906 34.3299ZM92.0301 14.9689L91.7495 15.5621C91.7945 14.8007 91.8238 14.0426 91.8343 13.2867C91.8908 13.8622 91.9558 14.4222 92.0301 14.9689ZM128.13 32.2028C127.564 31.5133 126.996 30.8238 126.441 30.1221C126.934 28.7974 127.441 27.4959 127.936 26.1712C128.052 28.2263 128.12 30.2361 128.13 32.2028Z" fill="#222222"/>
<path fill-rule="evenodd" clip-rule="evenodd" d="M169.493 45.8066C169.699 41.8589 170.45 38.7977 171.376 36.0221C172.13 38.8508 172.685 42.0028 172.841 45.8066H169.493ZM195.984 45.8066C196.14 42.0028 196.695 38.8508 197.449 36.0221C198.21 38.3052 198.854 40.781 199.172 43.7846C198.93 44.4597 198.698 45.1337 198.476 45.8066H195.984ZM209.538 45.8066C206.997 38.0573 209.258 29.3463 212.532 18.7218C210.152 21.9756 207.919 25.4673 205.899 29.0851C205.094 25.433 204.218 21.8107 203.28 18.2603C203.893 15.415 204.286 12.2077 204.286 8.36183C203.87 10.8276 203.222 13.03 202.407 15.0431C201.01 10.0208 199.496 5.17116 197.895 0.608154C198.88 7.26396 199.746 13.4561 200.324 19.2741C199.043 21.4798 197.575 23.4763 196.049 25.4053C194.546 22.8798 193.342 20.0156 192.742 16.4685C192.742 21.0216 193.434 24.4502 194.372 27.4804C192.878 29.3043 191.369 31.1127 189.958 33.0306C190.058 24.272 192.175 14.6192 194.861 3.614C191.476 9.45859 188.34 15.8089 185.583 22.3806C186.327 17.1968 187.442 11.6798 188.708 5.74997C184.638 13.7803 181 22.8123 178.12 32.0368C176.929 30.4818 175.687 28.9867 174.453 27.4804C175.391 24.4502 176.084 21.0216 176.084 16.4685C175.483 20.0156 174.28 22.8809 172.777 25.4064C170.94 23.0856 169.189 20.6641 167.742 17.8995C168.594 13.3919 169.702 8.64404 170.93 3.614C169.134 6.71503 167.409 9.95772 165.773 13.3C165.259 11.7705 164.838 10.1348 164.538 8.36183C164.538 9.97653 164.609 11.4772 164.734 12.8872C163.473 18.7716 160.284 24.8431 157.157 30.9068C156.622 29.2323 156.062 27.5667 155.481 25.9133C156.227 21.9036 157.282 17.6516 158.471 13.1063C156.838 15.7359 155.275 18.4961 153.802 21.3436C151.719 15.8964 149.402 10.6372 146.925 5.74997C148.64 13.7848 150.078 21.0625 150.692 27.7781C149.329 30.8072 148.074 33.8983 146.953 37.0037C145.15 35.5251 143.26 34.1108 141.486 32.61C139.172 25.5425 136.344 18.6587 133.214 12.481C134.272 17.4336 135.203 22.0453 135.829 26.3792C135.067 25.1231 134.46 23.7563 134.063 22.2334C134.063 26.3051 135.108 29.2744 136.461 31.9228C136.551 33.0815 136.61 34.2192 136.635 35.3392C132.984 31.7048 129.279 28.119 128.06 22.2334C128.06 32.9952 133.852 36.0663 134.621 45.8066H132.335V50.1759H211.673V45.8066H209.538ZM166.028 34.3299C165.985 30.7441 166.299 27.0089 166.868 23.0923C167.667 25.5337 168.578 27.7936 169.447 30.1233C168.321 31.5399 167.155 32.9133 166.028 34.3299ZM164.968 14.9689L164.687 15.5621C164.732 14.8007 164.761 14.0426 164.772 13.2867C164.828 13.8622 164.893 14.4222 164.968 14.9689ZM201.068 32.2028C200.501 31.5133 199.934 30.8238 199.378 30.1221C199.871 28.7974 200.379 27.4959 200.873 26.1712C200.989 28.2263 201.057 30.2361 201.068 32.2028Z" fill="#222222"/>
<path fill-rule="evenodd" clip-rule="evenodd" d="M31.433 45.8066C31.6382 41.8589 32.3899 38.7977 33.3154 36.0221C34.0702 38.8508 34.625 42.0028 34.781 45.8066H31.433ZM57.9237 45.8066C58.0797 42.0028 58.6346 38.8508 59.3883 36.0221C60.1494 38.3052 60.7933 40.781 61.1115 43.7846C60.8697 44.4597 60.6373 45.1337 60.4153 45.8066H57.9237ZM71.4779 45.8066C68.9371 38.0573 71.1973 29.3463 74.472 18.7218C72.0914 21.9756 69.8583 25.4673 67.8389 29.0851C67.0338 25.433 66.1576 21.8107 65.2195 18.2603C65.833 15.415 66.2256 12.2077 66.2256 8.36183C65.81 10.8276 65.1619 13.03 64.3464 15.0431C62.9499 10.0208 61.4361 5.17116 59.8343 0.608154C60.8194 7.26396 61.6852 13.4561 62.2641 19.2741C60.9827 21.4798 59.515 23.4763 57.9886 25.4053C56.4853 22.8798 55.2813 20.0156 54.6815 16.4685C54.6815 21.0216 55.3735 24.4502 56.3115 27.4804C54.8176 29.3043 53.309 31.1127 51.8978 33.0306C51.9972 24.272 54.1151 14.6192 56.8004 3.614C53.4158 9.45859 50.2793 15.8089 47.5228 22.3806C48.2671 17.1968 49.3821 11.6798 50.6478 5.74997C46.5774 13.7803 42.9395 22.8123 40.0595 32.0368C38.8691 30.4818 37.6265 28.9867 36.3922 27.4804C37.3302 24.4502 38.0232 21.0216 38.0232 16.4685C37.4223 20.0156 36.2194 22.8809 34.7172 25.4064C32.8798 23.0856 31.1284 20.6641 29.6816 17.8995C30.5337 13.3919 31.6414 8.64404 32.8694 3.614C31.0739 6.71503 29.3487 9.95772 27.7124 13.3C27.1983 11.7705 26.7775 10.1348 26.4781 8.36183C26.4781 9.97653 26.5482 11.4772 26.6738 12.8872C25.4123 18.7716 22.2235 24.8431 19.0964 30.9068C18.5614 29.2323 18.0013 27.5667 17.4203 25.9133C18.1668 21.9036 19.222 17.6516 20.4103 13.1063C18.7781 15.7359 17.2151 18.4961 15.7421 21.3436C13.6588 15.8964 11.342 10.6372 8.86508 5.74997C10.5799 13.7848 12.0173 21.0625 12.6318 27.7781C11.2688 30.8072 10.0135 33.8983 8.8923 37.0037C7.08954 35.5251 5.19989 34.1108 3.4254 32.61C1.11176 25.5425 -1.71591 18.6587 -4.84613 12.481C-3.78876 17.4336 -2.85702 22.0453 -2.23098 26.3792C-2.99312 25.1231 -3.60032 23.7563 -3.99709 22.2334C-3.99709 26.3051 -2.95229 29.2744 -1.5997 31.9228C-1.50967 33.0815 -1.44999 34.2192 -1.42487 35.3392C-5.07644 31.7048 -8.78141 28.119 -10 22.2334C-10 32.9952 -4.20857 36.0663 -3.4391 45.8066H-5.72552V50.1759H73.6125V45.8066H71.4779ZM27.9678 34.3299C27.9249 30.7441 28.239 27.0089 28.8074 23.0923C29.6062 25.5337 30.5181 27.7936 31.387 30.1233C30.2605 31.5399 29.0943 32.9133 27.9678 34.3299ZM26.9073 14.9689L26.6267 15.5621C26.6717 14.8007 26.7011 14.0426 26.7115 13.2867C26.7681 13.8622 26.833 14.4222 26.9073 14.9689ZM63.0074 32.2028C62.4411 31.5133 61.8736 30.8238 61.3177 30.1221C61.8108 28.7974 62.3186 27.4959 62.8127 26.1712C62.9289 28.2263 62.997 30.2361 63.0074 32.2028Z" fill="#222222"/>
<path fill-rule="evenodd" clip-rule="evenodd" d="M245.036 45.8066C245.241 41.8589 245.993 38.7977 246.918 36.0221C247.673 38.8508 248.228 42.0028 248.384 45.8066H245.036ZM271.526 45.8066C271.682 42.0028 272.237 38.8508 272.991 36.0221C273.752 38.3052 274.396 40.781 274.714 43.7846C274.472 44.4597 274.24 45.1337 274.018 45.8066H271.526ZM285.081 45.8066C282.54 38.0573 284.8 29.3463 288.075 18.7218C285.694 21.9756 283.461 25.4673 281.442 29.0851C280.637 25.433 279.76 21.8107 278.822 18.2603C279.436 15.415 279.828 12.2077 279.828 8.36183C279.413 10.8276 278.765 13.03 277.949 15.0431C276.553 10.0208 275.039 5.17116 273.437 0.608154C274.422 7.26396 275.288 13.4561 275.867 19.2741C274.585 21.4798 273.118 23.4763 271.591 25.4053C270.088 22.8798 268.884 20.0156 268.284 16.4685C268.284 21.0216 268.976 24.4502 269.914 27.4804C268.42 29.3043 266.912 31.1127 265.501 33.0306C265.6 24.272 267.718 14.6192 270.403 3.614C267.019 9.45859 263.882 15.8089 261.126 22.3806C261.87 17.1968 262.985 11.6798 264.251 5.74997C260.18 13.7803 256.542 22.8123 253.662 32.0368C252.472 30.4818 251.229 28.9867 249.995 27.4804C250.933 24.4502 251.626 21.0216 251.626 16.4685C251.025 20.0156 249.822 22.8809 248.32 25.4064C246.483 23.0856 244.731 20.6641 243.284 17.8995C244.137 13.3919 245.244 8.64404 246.472 3.614C244.677 6.71503 242.951 9.95772 241.315 13.3C240.801 11.7705 240.38 10.1348 240.081 8.36183C240.081 9.97653 240.151 11.4772 240.277 12.8872C239.015 18.7716 235.826 24.8431 232.699 30.9068C232.164 29.2323 231.604 27.5667 231.023 25.9133C231.77 21.9036 232.825 17.6516 234.013 13.1063C232.381 15.7359 230.818 18.4961 229.345 21.3436C227.262 15.8964 224.945 10.6372 222.468 5.74997C224.183 13.7848 225.62 21.0625 226.235 27.7781C224.872 30.8072 223.616 33.8983 222.495 37.0037C220.692 35.5251 218.803 34.1108 217.028 32.61C214.715 25.5425 211.887 18.6587 208.757 12.481C209.814 17.4336 210.746 22.0453 211.372 26.3792C210.61 25.1231 210.002 23.7563 209.606 22.2334C209.606 26.3051 210.65 29.2744 212.003 31.9228C212.093 33.0815 212.153 34.2192 212.178 35.3392C208.526 31.7048 204.821 28.119 203.603 22.2334C203.603 32.9952 209.394 36.0663 210.164 45.8066H207.877V50.1759H287.215V45.8066H285.081ZM241.571 34.3299C241.528 30.7441 241.842 27.0089 242.41 23.0923C243.209 25.5337 244.121 27.7936 244.99 30.1233C243.863 31.5399 242.697 32.9133 241.571 34.3299ZM240.51 14.9689L240.229 15.5621C240.274 14.8007 240.304 14.0426 240.314 13.2867C240.371 13.8622 240.436 14.4222 240.51 14.9689ZM276.61 32.2028C276.044 31.5133 275.476 30.8238 274.921 30.1221C275.414 28.7974 275.921 27.4959 276.415 26.1712C276.532 28.2263 276.6 30.2361 276.61 32.2028Z" fill="#222222"/>
<path fill-rule="evenodd" clip-rule="evenodd" d="M315.368 45.8066C315.574 41.8589 316.325 38.7977 317.251 36.0221C318.006 38.8508 318.56 42.0028 318.716 45.8066H315.368ZM341.859 45.8066C342.015 42.0028 342.57 38.8508 343.324 36.0221C344.085 38.3052 344.729 40.781 345.047 43.7846C344.805 44.4597 344.573 45.1337 344.351 45.8066H341.859ZM355.413 45.8066C352.872 38.0573 355.133 29.3463 358.407 18.7218C356.027 21.9756 353.794 25.4673 351.774 29.0851C350.969 25.433 350.093 21.8107 349.155 18.2603C349.768 15.415 350.161 12.2077 350.161 8.36183C349.745 10.8276 349.097 13.03 348.282 15.0431C346.885 10.0208 345.371 5.17116 343.77 0.608154C344.755 7.26396 345.621 13.4561 346.199 19.2741C344.918 21.4798 343.45 23.4763 341.924 25.4053C340.421 22.8798 339.217 20.0156 338.617 16.4685C338.617 21.0216 339.309 24.4502 340.247 27.4804C338.753 29.3043 337.244 31.1127 335.833 33.0306C335.933 24.272 338.05 14.6192 340.736 3.614C337.351 9.45859 334.215 15.8089 331.458 22.3806C332.202 17.1968 333.317 11.6798 334.583 5.74997C330.513 13.7803 326.875 22.8123 323.995 32.0368C322.805 30.4818 321.562 28.9867 320.328 27.4804C321.266 24.4502 321.959 21.0216 321.959 16.4685C321.358 20.0156 320.155 22.8809 318.652 25.4064C316.815 23.0856 315.064 20.6641 313.617 17.8995C314.469 13.3919 315.577 8.64404 316.805 3.614C315.009 6.71503 313.284 9.95772 311.648 13.3C311.134 11.7705 310.713 10.1348 310.413 8.36183C310.413 9.97653 310.484 11.4772 310.609 12.8872C309.348 18.7716 306.159 24.8431 303.032 30.9068C302.497 29.2323 301.937 27.5667 301.356 25.9133C302.102 21.9036 303.157 17.6516 304.346 13.1063C302.714 15.7359 301.15 18.4961 299.677 21.3436C297.594 15.8964 295.277 10.6372 292.8 5.74997C294.515 13.7848 295.953 21.0625 296.567 27.7781C295.204 30.8072 293.949 33.8983 292.828 37.0037C291.025 35.5251 289.135 34.1108 287.361 32.61C285.047 25.5425 282.219 18.6587 279.089 12.481C280.147 17.4336 281.078 22.0453 281.704 26.3792C280.942 25.1231 280.335 23.7563 279.938 22.2334C279.938 26.3051 280.983 29.2744 282.336 31.9228C282.426 33.0815 282.485 34.2192 282.51 35.3392C278.859 31.7048 275.154 28.119 273.935 22.2334C273.935 32.9952 279.727 36.0663 280.496 45.8066H278.21V50.1759H357.548V45.8066H355.413ZM311.903 34.3299C311.86 30.7441 312.174 27.0089 312.743 23.0923C313.542 25.5337 314.453 27.7936 315.322 30.1233C314.196 31.5399 313.03 32.9133 311.903 34.3299ZM310.843 14.9689L310.562 15.5621C310.607 14.8007 310.636 14.0426 310.647 13.2867C310.703 13.8622 310.768 14.4222 310.843 14.9689ZM346.943 32.2028C346.376 31.5133 345.809 30.8238 345.253 30.1221C345.746 28.7974 346.254 27.4959 346.748 26.1712C346.864 28.2263 346.932 30.2361 346.943 32.2028Z" fill="#222222"/>
<path fill-rule="evenodd" clip-rule="evenodd" d="M459.606 45.8068C459.812 41.8591 460.563 38.798 461.489 36.0223C462.243 38.8511 462.798 42.003 462.954 45.8068H459.606ZM486.097 45.8068C486.253 42.003 486.808 38.8511 487.562 36.0223C488.323 38.3055 488.967 40.7812 489.285 43.7848C489.043 44.4599 488.811 45.1339 488.589 45.8068H486.097ZM499.651 45.8068C497.11 38.0576 499.371 29.3466 502.645 18.7221C500.265 21.9758 498.032 25.4675 496.012 29.0854C495.207 25.4332 494.331 21.8109 493.393 18.2606C494.006 15.4152 494.399 12.2079 494.399 8.36208C493.983 10.8278 493.335 13.0302 492.52 15.0433C491.123 10.021 489.609 5.1714 488.008 0.608398C488.993 7.26421 489.859 13.4563 490.437 19.2743C489.156 21.48 487.688 23.4765 486.162 25.4056C484.659 22.88 483.455 20.0158 482.855 16.4688C482.855 21.0218 483.547 24.4505 484.485 27.4806C482.991 29.3045 481.482 31.1129 480.071 33.0308C480.171 24.2723 482.288 14.6195 484.974 3.61425C481.589 9.45883 478.453 15.8092 475.696 22.3809C476.44 17.197 477.555 11.68 478.821 5.75022C474.751 13.7806 471.113 22.8125 468.233 32.037C467.042 30.4821 465.8 28.9869 464.566 27.4806C465.504 24.4505 466.197 21.0218 466.197 16.4688C465.596 20.0158 464.393 22.8811 462.89 25.4067C461.053 23.0859 459.302 20.6644 457.855 17.8998C458.707 13.3921 459.815 8.64429 461.043 3.61425C459.247 6.71528 457.522 9.95796 455.886 13.3003C455.372 11.7708 454.951 10.135 454.651 8.36208C454.651 9.97678 454.722 11.4775 454.847 12.8874C453.586 18.7719 450.397 24.8433 447.27 30.9071C446.735 29.2326 446.175 27.567 445.594 25.9135C446.34 21.9039 447.395 17.6519 448.584 13.1066C446.951 15.7361 445.388 18.4963 443.915 21.3439C441.832 15.8966 439.515 10.6375 437.038 5.75022C438.753 13.785 440.191 21.0628 440.805 27.7784C439.442 30.8074 438.187 33.8985 437.066 37.004C435.263 35.5254 433.373 34.111 431.599 32.6103C429.285 25.5428 426.457 18.659 423.327 12.4813C424.385 17.4339 425.316 22.0456 425.942 26.3795C425.18 25.1233 424.573 23.7565 424.176 22.2337C424.176 26.3053 425.221 29.2746 426.574 31.923C426.664 33.0818 426.723 34.2195 426.748 35.3395C423.097 31.705 419.392 28.1192 418.173 22.2337C418.173 32.9954 423.965 36.0666 424.734 45.8068H422.448V50.1761H501.786V45.8068H499.651ZM456.141 34.3301C456.098 30.7444 456.412 27.0092 456.981 23.0925C457.78 25.5339 458.691 27.7939 459.56 30.1235C458.434 31.5401 457.268 32.9135 456.141 34.3301ZM455.081 14.9692L454.8 15.5624C454.845 14.801 454.874 14.0429 454.885 13.287C454.941 13.8625 455.006 14.4225 455.081 14.9692ZM491.181 32.203C490.614 31.5135 490.047 30.824 489.491 30.1224C489.984 28.7976 490.492 27.4961 490.986 26.1714C491.102 28.2266 491.17 30.2364 491.181 32.203Z" fill="#222222"/>
<path fill-rule="evenodd" clip-rule="evenodd" d="M532.544 45.8068C532.749 41.8591 533.501 38.798 534.426 36.0223C535.181 38.8511 535.736 42.003 535.892 45.8068H532.544ZM559.035 45.8068C559.191 42.003 559.745 38.8511 560.499 36.0223C561.26 38.3055 561.904 40.7812 562.222 43.7848C561.981 44.4599 561.748 45.1339 561.526 45.8068H559.035ZM572.589 45.8068C570.048 38.0576 572.308 29.3466 575.583 18.7221C573.202 21.9758 570.969 25.4675 568.95 29.0854C568.145 25.4332 567.268 21.8109 566.33 18.2606C566.944 15.4152 567.336 12.2079 567.336 8.36208C566.921 10.8278 566.273 13.0302 565.457 15.0433C564.061 10.021 562.547 5.1714 560.945 0.608398C561.93 7.26421 562.796 13.4563 563.375 19.2743C562.094 21.48 560.626 23.4765 559.099 25.4056C557.596 22.88 556.392 20.0158 555.792 16.4688C555.792 21.0218 556.484 24.4505 557.422 27.4806C555.928 29.3045 554.42 31.1129 553.009 33.0308C553.108 24.2723 555.226 14.6195 557.911 3.61425C554.527 9.45883 551.39 15.8092 548.634 22.3809C549.378 17.197 550.493 11.68 551.759 5.75022C547.688 13.7806 544.05 22.8125 541.17 32.037C539.98 30.4821 538.737 28.9869 537.503 27.4806C538.441 24.4505 539.134 21.0218 539.134 16.4688C538.533 20.0158 537.33 22.8811 535.828 25.4067C533.991 23.0859 532.239 20.6644 530.792 17.8998C531.645 13.3921 532.752 8.64429 533.98 3.61425C532.185 6.71528 530.46 9.95796 528.823 13.3003C528.309 11.7708 527.888 10.135 527.589 8.36208C527.589 9.97678 527.659 11.4775 527.785 12.8874C526.523 18.7719 523.334 24.8433 520.207 30.9071C519.672 29.2326 519.112 27.567 518.531 25.9135C519.278 21.9039 520.333 17.6519 521.521 13.1066C519.889 15.7361 518.326 18.4963 516.853 21.3439C514.77 15.8966 512.453 10.6375 509.976 5.75022C511.691 13.785 513.128 21.0628 513.743 27.7784C512.38 30.8074 511.124 33.8985 510.003 37.004C508.2 35.5254 506.311 34.111 504.536 32.6103C502.223 25.5428 499.395 18.659 496.265 12.4813C497.322 17.4339 498.254 22.0456 498.88 26.3795C498.118 25.1233 497.511 23.7565 497.114 22.2337C497.114 26.3053 498.159 29.2746 499.511 31.923C499.601 33.0818 499.661 34.2195 499.686 35.3395C496.034 31.705 492.329 28.1192 491.111 22.2337C491.111 32.9954 496.902 36.0666 497.672 45.8068H495.385V50.1761H574.723V45.8068H572.589ZM529.079 34.3301C529.036 30.7444 529.35 27.0092 529.918 23.0925C530.717 25.5339 531.629 27.7939 532.498 30.1235C531.371 31.5401 530.205 32.9135 529.079 34.3301ZM528.018 14.9692L527.738 15.5624C527.783 14.801 527.812 14.0429 527.822 13.287C527.879 13.8625 527.944 14.4225 528.018 14.9692ZM564.118 32.203C563.552 31.5135 562.984 30.824 562.429 30.1224C562.922 28.7976 563.429 27.4961 563.924 26.1714C564.04 28.2266 564.108 30.2364 564.118 32.203Z" fill="#222222"/>
<path fill-rule="evenodd" clip-rule="evenodd" d="M394.484 45.8068C394.689 41.8591 395.44 38.798 396.366 36.0223C397.121 38.8511 397.676 42.003 397.832 45.8068H394.484ZM420.974 45.8068C421.13 42.003 421.685 38.8511 422.439 36.0223C423.2 38.3055 423.844 40.7812 424.162 43.7848C423.92 44.4599 423.688 45.1339 423.466 45.8068H420.974ZM434.528 45.8068C431.988 38.0576 434.248 29.3466 437.523 18.7221C435.142 21.9758 432.909 25.4675 430.889 29.0854C430.084 25.4332 429.208 21.8109 428.27 18.2606C428.884 15.4152 429.276 12.2079 429.276 8.36208C428.861 10.8278 428.212 13.0302 427.397 15.0433C426 10.021 424.487 5.1714 422.885 0.608398C423.87 7.26421 424.736 13.4563 425.315 19.2743C424.033 21.48 422.566 23.4765 421.039 25.4056C419.536 22.88 418.332 20.0158 417.732 16.4688C417.732 21.0218 418.424 24.4505 419.362 27.4806C417.868 29.3045 416.36 31.1129 414.948 33.0308C415.048 24.2723 417.166 14.6195 419.851 3.61425C416.466 9.45883 413.33 15.8092 410.573 22.3809C411.318 17.197 412.433 11.68 413.698 5.75022C409.628 13.7806 405.99 22.8125 403.11 32.037C401.92 30.4821 400.677 28.9869 399.443 27.4806C400.381 24.4505 401.074 21.0218 401.074 16.4688C400.473 20.0158 399.27 22.8811 397.768 25.4067C395.93 23.0859 394.179 20.6644 392.732 17.8998C393.584 13.3921 394.692 8.64429 395.92 3.61425C394.124 6.71528 392.399 9.95796 390.763 13.3003C390.249 11.7708 389.828 10.135 389.529 8.36208C389.529 9.97678 389.599 11.4775 389.724 12.8874C388.463 18.7719 385.274 24.8433 382.147 30.9071C381.612 29.2326 381.052 27.567 380.471 25.9135C381.217 21.9039 382.273 17.6519 383.461 13.1066C381.829 15.7361 380.266 18.4963 378.793 21.3439C376.709 15.8966 374.393 10.6375 371.916 5.75022C373.63 13.785 375.068 21.0628 375.682 27.7784C374.319 30.8074 373.064 33.8985 371.943 37.004C370.14 35.5254 368.25 34.111 366.476 32.6103C364.162 25.5428 361.335 18.659 358.204 12.4813C359.262 17.4339 360.194 22.0456 360.82 26.3795C360.057 25.1233 359.45 23.7565 359.053 22.2337C359.053 26.3053 360.098 29.2746 361.451 31.923C361.541 33.0818 361.601 34.2195 361.626 35.3395C357.974 31.705 354.269 28.1192 353.051 22.2337C353.051 32.9954 358.842 36.0666 359.611 45.8068H357.325V50.1761H436.663V45.8068H434.528ZM391.018 34.3301C390.975 30.7444 391.289 27.0092 391.858 23.0925C392.657 25.5339 393.569 27.7939 394.438 30.1235C393.311 31.5401 392.145 32.9135 391.018 34.3301ZM389.958 14.9692L389.677 15.5624C389.722 14.801 389.752 14.0429 389.762 13.287C389.819 13.8625 389.884 14.4225 389.958 14.9692ZM426.058 32.203C425.492 31.5135 424.924 30.824 424.368 30.1224C424.861 28.7976 425.369 27.4961 425.863 26.1714C425.979 28.2266 426.048 30.2364 426.058 32.203Z" fill="#222222"/>
<path fill-rule="evenodd" clip-rule="evenodd" d="M608.086 45.8068C608.292 41.8591 609.043 38.798 609.969 36.0223C610.723 38.8511 611.278 42.003 611.434 45.8068H608.086ZM634.577 45.8068C634.733 42.003 635.288 38.8511 636.042 36.0223C636.803 38.3055 637.447 40.7812 637.765 43.7848C637.523 44.4599 637.291 45.1339 637.069 45.8068H634.577ZM648.131 45.8068C645.59 38.0576 647.851 29.3466 651.125 18.7221C648.745 21.9758 646.512 25.4675 644.492 29.0854C643.687 25.4332 642.811 21.8109 641.873 18.2606C642.486 15.4152 642.879 12.2079 642.879 8.36208C642.463 10.8278 641.815 13.0302 641 15.0433C639.603 10.021 638.089 5.1714 636.488 0.608398C637.473 7.26421 638.339 13.4563 638.917 19.2743C637.636 21.48 636.168 23.4765 634.642 25.4056C633.139 22.88 631.935 20.0158 631.335 16.4688C631.335 21.0218 632.027 24.4505 632.965 27.4806C631.471 29.3045 629.962 31.1129 628.551 33.0308C628.651 24.2723 630.768 14.6195 633.454 3.61425C630.069 9.45883 626.933 15.8092 624.176 22.3809C624.92 17.197 626.035 11.68 627.301 5.75022C623.231 13.7806 619.593 22.8125 616.713 32.037C615.522 30.4821 614.28 28.9869 613.045 27.4806C613.983 24.4505 614.677 21.0218 614.677 16.4688C614.076 20.0158 612.873 22.8811 611.37 25.4067C609.533 23.0859 607.782 20.6644 606.335 17.8998C607.187 13.3921 608.295 8.64429 609.523 3.61425C607.727 6.71528 606.002 9.95796 604.366 13.3003C603.852 11.7708 603.431 10.135 603.131 8.36208C603.131 9.97678 603.201 11.4775 603.327 12.8874C602.066 18.7719 598.877 24.8433 595.75 30.9071C595.215 29.2326 594.655 27.567 594.074 25.9135C594.82 21.9039 595.875 17.6519 597.064 13.1066C595.431 15.7361 593.868 18.4963 592.395 21.3439C590.312 15.8966 587.995 10.6375 585.518 5.75022C587.233 13.785 588.671 21.0628 589.285 27.7784C587.922 30.8074 586.667 33.8985 585.546 37.004C583.743 35.5254 581.853 34.111 580.079 32.6103C577.765 25.5428 574.937 18.659 571.807 12.4813C572.865 17.4339 573.796 22.0456 574.422 26.3795C573.66 25.1233 573.053 23.7565 572.656 22.2337C572.656 26.3053 573.701 29.2746 575.054 31.923C575.144 33.0818 575.203 34.2195 575.228 35.3395C571.577 31.705 567.872 28.1192 566.653 22.2337C566.653 32.9954 572.445 36.0666 573.214 45.8068H570.928V50.1761H650.266V45.8068H648.131ZM604.621 34.3301C604.578 30.7444 604.892 27.0092 605.461 23.0925C606.259 25.5339 607.171 27.7939 608.04 30.1235C606.914 31.5401 605.748 32.9135 604.621 34.3301ZM603.561 14.9692L603.28 15.5624C603.325 14.801 603.354 14.0429 603.365 13.287C603.421 13.8625 603.486 14.4225 603.561 14.9692ZM639.661 32.203C639.094 31.5135 638.527 30.824 637.971 30.1224C638.464 28.7976 638.972 27.4961 639.466 26.1714C639.582 28.2266 639.65 30.2364 639.661 32.203Z" fill="#222222"/>
<path fill-rule="evenodd" clip-rule="evenodd" d="M678.419 45.8068C678.624 41.8591 679.376 38.798 680.301 36.0223C681.056 38.8511 681.611 42.003 681.767 45.8068H678.419ZM704.91 45.8068C705.066 42.003 705.62 38.8511 706.374 36.0223C707.135 38.3055 707.779 40.7812 708.097 43.7848C707.856 44.4599 707.623 45.1339 707.401 45.8068H704.91ZM718.464 45.8068C715.923 38.0576 718.183 29.3466 721.458 18.7221C719.077 21.9758 716.844 25.4675 714.825 29.0854C714.02 25.4332 713.143 21.8109 712.205 18.2606C712.819 15.4152 713.212 12.2079 713.212 8.36208C712.796 10.8278 712.148 13.0302 711.332 15.0433C709.936 10.021 708.422 5.1714 706.82 0.608398C707.805 7.26421 708.671 13.4563 709.25 19.2743C707.969 21.48 706.501 23.4765 704.975 25.4056C703.471 22.88 702.267 20.0158 701.667 16.4688C701.667 21.0218 702.359 24.4505 703.297 27.4806C701.803 29.3045 700.295 31.1129 698.884 33.0308C698.983 24.2723 701.101 14.6195 703.786 3.61425C700.402 9.45883 697.265 15.8092 694.509 22.3809C695.253 17.197 696.368 11.68 697.634 5.75022C693.563 13.7806 689.925 22.8125 687.045 32.037C685.855 30.4821 684.612 28.9869 683.378 27.4806C684.316 24.4505 685.009 21.0218 685.009 16.4688C684.408 20.0158 683.205 22.8811 681.703 25.4067C679.866 23.0859 678.114 20.6644 676.667 17.8998C677.52 13.3921 678.627 8.64429 679.855 3.61425C678.06 6.71528 676.335 9.95796 674.698 13.3003C674.184 11.7708 673.763 10.135 673.464 8.36208C673.464 9.97678 673.534 11.4775 673.66 12.8874C672.398 18.7719 669.209 24.8433 666.082 30.9071C665.547 29.2326 664.987 27.567 664.406 25.9135C665.153 21.9039 666.208 17.6519 667.396 13.1066C665.764 15.7361 664.201 18.4963 662.728 21.3439C660.645 15.8966 658.328 10.6375 655.851 5.75022C657.566 13.785 659.003 21.0628 659.618 27.7784C658.255 30.8074 656.999 33.8985 655.878 37.004C654.075 35.5254 652.186 34.111 650.411 32.6103C648.098 25.5428 645.27 18.659 642.14 12.4813C643.197 17.4339 644.129 22.0456 644.755 26.3795C643.993 25.1233 643.386 23.7565 642.989 22.2337C642.989 26.3053 644.034 29.2746 645.386 31.923C645.476 33.0818 645.536 34.2195 645.561 35.3395C641.909 31.705 638.204 28.1192 636.986 22.2337C636.986 32.9954 642.777 36.0666 643.547 45.8068H641.26V50.1761H720.598V45.8068H718.464ZM674.954 34.3301C674.911 30.7444 675.225 27.0092 675.793 23.0925C676.592 25.5339 677.504 27.7939 678.373 30.1235C677.246 31.5401 676.08 32.9135 674.954 34.3301ZM673.893 14.9692L673.613 15.5624C673.658 14.801 673.687 14.0429 673.697 13.287C673.754 13.8625 673.819 14.4225 673.893 14.9692ZM709.993 32.203C709.427 31.5135 708.86 30.824 708.304 30.1224C708.797 28.7976 709.304 27.4961 709.799 26.1714C709.915 28.2266 709.983 30.2364 709.993 32.203Z" fill="#222222"/>
<path fill-rule="evenodd" clip-rule="evenodd" d="M822.657 45.8066C822.863 41.8589 823.614 38.7977 824.54 36.0221C825.295 38.8508 825.849 42.0028 826.005 45.8066H822.657ZM849.148 45.8066C849.304 42.0028 849.859 38.8508 850.613 36.0221C851.374 38.3052 852.018 40.781 852.336 43.7846C852.094 44.4597 851.862 45.1337 851.64 45.8066H849.148ZM862.702 45.8066C860.161 38.0573 862.422 29.3463 865.696 18.7218C863.316 21.9756 861.083 25.4673 859.063 29.0851C858.258 25.433 857.382 21.8107 856.444 18.2603C857.057 15.415 857.45 12.2077 857.45 8.36183C857.034 10.8276 856.386 13.03 855.571 15.0431C854.174 10.0208 852.66 5.17116 851.059 0.608154C852.044 7.26396 852.91 13.4561 853.488 19.2741C852.207 21.4798 850.739 23.4763 849.213 25.4053C847.71 22.8798 846.506 20.0156 845.906 16.4685C845.906 21.0216 846.598 24.4502 847.536 27.4804C846.042 29.3043 844.533 31.1127 843.122 33.0306C843.222 24.272 845.339 14.6192 848.025 3.614C844.64 9.45859 841.504 15.8089 838.747 22.3806C839.491 17.1968 840.606 11.6798 841.872 5.74997C837.802 13.7803 834.164 22.8123 831.284 32.0368C830.093 30.4818 828.851 28.9867 827.617 27.4804C828.555 24.4502 829.248 21.0216 829.248 16.4685C828.647 20.0156 827.444 22.8809 825.941 25.4064C824.104 23.0856 822.353 20.6641 820.906 17.8995C821.758 13.3919 822.866 8.64404 824.094 3.614C822.298 6.71503 820.573 9.95772 818.937 13.3C818.423 11.7705 818.002 10.1348 817.702 8.36183C817.702 9.97653 817.773 11.4772 817.898 12.8872C816.637 18.7716 813.448 24.8431 810.321 30.9068C809.786 29.2323 809.226 27.5667 808.645 25.9133C809.391 21.9036 810.446 17.6516 811.635 13.1063C810.002 15.7359 808.439 18.4961 806.966 21.3436C804.883 15.8964 802.566 10.6372 800.089 5.74997C801.804 13.7848 803.242 21.0625 803.856 27.7781C802.493 30.8072 801.238 33.8983 800.117 37.0037C798.314 35.5251 796.424 34.1108 794.65 32.61C792.336 25.5425 789.508 18.6587 786.378 12.481C787.436 17.4336 788.367 22.0453 788.993 26.3792C788.231 25.1231 787.624 23.7563 787.227 22.2334C787.227 26.3051 788.272 29.2744 789.625 31.9228C789.715 33.0815 789.774 34.2192 789.799 35.3392C786.148 31.7048 782.443 28.119 781.224 22.2334C781.224 32.9952 787.016 36.0663 787.785 45.8066H785.499V50.1759H864.837V45.8066H862.702ZM819.192 34.3299C819.149 30.7441 819.463 27.0089 820.032 23.0923C820.831 25.5337 821.742 27.7936 822.611 30.1233C821.485 31.5399 820.319 32.9133 819.192 34.3299ZM818.132 14.9689L817.851 15.5621C817.896 14.8007 817.925 14.0426 817.936 13.2867C817.992 13.8622 818.057 14.4222 818.132 14.9689ZM854.232 32.2028C853.665 31.5133 853.098 30.8238 852.542 30.1221C853.035 28.7974 853.543 27.4959 854.037 26.1712C854.153 28.2263 854.221 30.2361 854.232 32.2028Z" fill="#222222"/>
<path fill-rule="evenodd" clip-rule="evenodd" d="M895.595 45.8066C895.8 41.8589 896.552 38.7977 897.477 36.0221C898.232 38.8508 898.787 42.0028 898.943 45.8066H895.595ZM922.086 45.8066C922.242 42.0028 922.796 38.8508 923.55 36.0221C924.311 38.3052 924.955 40.781 925.273 43.7846C925.032 44.4597 924.799 45.1337 924.577 45.8066H922.086ZM935.64 45.8066C933.099 38.0573 935.359 29.3463 938.634 18.7218C936.253 21.9756 934.02 25.4673 932.001 29.0851C931.196 25.433 930.319 21.8107 929.381 18.2603C929.995 15.415 930.387 12.2077 930.387 8.36183C929.972 10.8276 929.324 13.03 928.508 15.0431C927.112 10.0208 925.598 5.17116 923.996 0.608154C924.981 7.26396 925.847 13.4561 926.426 19.2741C925.145 21.4798 923.677 23.4763 922.15 25.4053C920.647 22.8798 919.443 20.0156 918.843 16.4685C918.843 21.0216 919.535 24.4502 920.473 27.4804C918.979 29.3043 917.471 31.1127 916.06 33.0306C916.159 24.272 918.277 14.6192 920.962 3.614C917.578 9.45859 914.441 15.8089 911.685 22.3806C912.429 17.1968 913.544 11.6798 914.81 5.74997C910.739 13.7803 907.101 22.8123 904.221 32.0368C903.031 30.4818 901.788 28.9867 900.554 27.4804C901.492 24.4502 902.185 21.0216 902.185 16.4685C901.584 20.0156 900.381 22.8809 898.879 25.4064C897.042 23.0856 895.29 20.6641 893.843 17.8995C894.696 13.3919 895.803 8.64404 897.031 3.614C895.236 6.71503 893.511 9.95772 891.874 13.3C891.36 11.7705 890.939 10.1348 890.64 8.36183C890.64 9.97653 890.71 11.4772 890.836 12.8872C889.574 18.7716 886.385 24.8431 883.258 30.9068C882.723 29.2323 882.163 27.5667 881.582 25.9133C882.329 21.9036 883.384 17.6516 884.572 13.1063C882.94 15.7359 881.377 18.4961 879.904 21.3436C877.821 15.8964 875.504 10.6372 873.027 5.74997C874.742 13.7848 876.179 21.0625 876.794 27.7781C875.431 30.8072 874.175 33.8983 873.054 37.0037C871.251 35.5251 869.362 34.1108 867.587 32.61C865.274 25.5425 862.446 18.6587 859.316 12.481C860.373 17.4336 861.305 22.0453 861.931 26.3792C861.169 25.1231 860.562 23.7563 860.165 22.2334C860.165 26.3051 861.21 29.2744 862.562 31.9228C862.652 33.0815 862.712 34.2192 862.737 35.3392C859.085 31.7048 855.38 28.119 854.162 22.2334C854.162 32.9952 859.953 36.0663 860.723 45.8066H858.436V50.1759H937.774V45.8066H935.64ZM892.13 34.3299C892.087 30.7441 892.401 27.0089 892.969 23.0923C893.768 25.5337 894.68 27.7936 895.549 30.1233C894.422 31.5399 893.256 32.9133 892.13 34.3299ZM891.069 14.9689L890.789 15.5621C890.834 14.8007 890.863 14.0426 890.873 13.2867C890.93 13.8622 890.995 14.4222 891.069 14.9689ZM927.169 32.2028C926.603 31.5133 926.036 30.8238 925.48 30.1221C925.973 28.7974 926.48 27.4959 926.975 26.1712C927.091 28.2263 927.159 30.2361 927.169 32.2028Z" fill="#222222"/>
<path fill-rule="evenodd" clip-rule="evenodd" d="M757.535 45.8066C757.74 41.8589 758.491 38.7977 759.417 36.0221C760.172 38.8508 760.727 42.0028 760.883 45.8066H757.535ZM784.025 45.8066C784.181 42.0028 784.736 38.8508 785.49 36.0221C786.251 38.3052 786.895 40.781 787.213 43.7846C786.971 44.4597 786.739 45.1337 786.517 45.8066H784.025ZM797.579 45.8066C795.039 38.0573 797.299 29.3463 800.574 18.7218C798.193 21.9756 795.96 25.4673 793.94 29.0851C793.135 25.433 792.259 21.8107 791.321 18.2603C791.935 15.415 792.327 12.2077 792.327 8.36183C791.912 10.8276 791.264 13.03 790.448 15.0431C789.051 10.0208 787.538 5.17116 785.936 0.608154C786.921 7.26396 787.787 13.4561 788.366 19.2741C787.084 21.4798 785.617 23.4763 784.09 25.4053C782.587 22.8798 781.383 20.0156 780.783 16.4685C780.783 21.0216 781.475 24.4502 782.413 27.4804C780.919 29.3043 779.411 31.1127 777.999 33.0306C778.099 24.272 780.217 14.6192 782.902 3.614C779.517 9.45859 776.381 15.8089 773.624 22.3806C774.369 17.1968 775.484 11.6798 776.749 5.74997C772.679 13.7803 769.041 22.8123 766.161 32.0368C764.971 30.4818 763.728 28.9867 762.494 27.4804C763.432 24.4502 764.125 21.0216 764.125 16.4685C763.524 20.0156 762.321 22.8809 760.819 25.4064C758.981 23.0856 757.23 20.6641 755.783 17.8995C756.635 13.3919 757.743 8.64404 758.971 3.614C757.176 6.71503 755.45 9.95772 753.814 13.3C753.3 11.7705 752.879 10.1348 752.58 8.36183C752.58 9.97653 752.65 11.4772 752.775 12.8872C751.514 18.7716 748.325 24.8431 745.198 30.9068C744.663 29.2323 744.103 27.5667 743.522 25.9133C744.268 21.9036 745.324 17.6516 746.512 13.1063C744.88 15.7359 743.317 18.4961 741.844 21.3436C739.76 15.8964 737.444 10.6372 734.967 5.74997C736.681 13.7848 738.119 21.0625 738.733 27.7781C737.37 30.8072 736.115 33.8983 734.994 37.0037C733.191 35.5251 731.301 34.1108 729.527 32.61C727.213 25.5425 724.386 18.6587 721.255 12.481C722.313 17.4336 723.245 22.0453 723.871 26.3792C723.108 25.1231 722.501 23.7563 722.104 22.2334C722.104 26.3051 723.149 29.2744 724.502 31.9228C724.592 33.0815 724.652 34.2192 724.677 35.3392C721.025 31.7048 717.32 28.119 716.102 22.2334C716.102 32.9952 721.893 36.0663 722.662 45.8066H720.376V50.1759H799.714V45.8066H797.579ZM754.069 34.3299C754.026 30.7441 754.341 27.0089 754.909 23.0923C755.708 25.5337 756.62 27.7936 757.489 30.1233C756.362 31.5399 755.196 32.9133 754.069 34.3299ZM753.009 14.9689L752.728 15.5621C752.773 14.8007 752.803 14.0426 752.813 13.2867C752.87 13.8622 752.935 14.4222 753.009 14.9689ZM789.109 32.2028C788.543 31.5133 787.975 30.8238 787.419 30.1221C787.912 28.7974 788.42 27.4959 788.914 26.1712C789.03 28.2263 789.099 30.2361 789.109 32.2028Z" fill="#222222"/>
<path fill-rule="evenodd" clip-rule="evenodd" d="M971.137 45.8066C971.343 41.8589 972.094 38.7977 973.02 36.0221C973.774 38.8508 974.329 42.0028 974.485 45.8066H971.137ZM997.628 45.8066C997.784 42.0028 998.339 38.8508 999.093 36.0221C999.854 38.3052 1000.5 40.781 1000.82 43.7846C1000.57 44.4597 1000.34 45.1337 1000.12 45.8066H997.628ZM1011.18 45.8066C1008.64 38.0573 1010.9 29.3463 1014.18 18.7218C1011.8 21.9756 1009.56 25.4673 1007.54 29.0851C1006.74 25.433 1005.86 21.8107 1004.92 18.2603C1005.54 15.415 1005.93 12.2077 1005.93 8.36183C1005.51 10.8276 1004.87 13.03 1004.05 15.0431C1002.65 10.0208 1001.14 5.17116 999.539 0.608154C1000.52 7.26396 1001.39 13.4561 1001.97 19.2741C1000.69 21.4798 999.219 23.4763 997.693 25.4053C996.19 22.8798 994.986 20.0156 994.386 16.4685C994.386 21.0216 995.078 24.4502 996.016 27.4804C994.522 29.3043 993.013 31.1127 991.602 33.0306C991.702 24.272 993.819 14.6192 996.505 3.614C993.12 9.45859 989.984 15.8089 987.227 22.3806C987.971 17.1968 989.086 11.6798 990.352 5.74997C986.282 13.7803 982.644 22.8123 979.764 32.0368C978.573 30.4818 977.331 28.9867 976.096 27.4804C977.035 24.4502 977.728 21.0216 977.728 16.4685C977.127 20.0156 975.924 22.8809 974.421 25.4064C972.584 23.0856 970.833 20.6641 969.386 17.8995C970.238 13.3919 971.346 8.64404 972.574 3.614C970.778 6.71503 969.053 9.95772 967.417 13.3C966.903 11.7705 966.482 10.1348 966.182 8.36183C966.182 9.97653 966.253 11.4772 966.378 12.8872C965.117 18.7716 961.928 24.8431 958.801 30.9068C958.266 29.2323 957.706 27.5667 957.125 25.9133C957.871 21.9036 958.926 17.6516 960.115 13.1063C958.482 15.7359 956.919 18.4961 955.446 21.3436C953.363 15.8964 951.046 10.6372 948.569 5.74997C950.284 13.7848 951.722 21.0625 952.336 27.7781C950.973 30.8072 949.718 33.8983 948.597 37.0037C946.794 35.5251 944.904 34.1108 943.13 32.61C940.816 25.5425 937.988 18.6587 934.858 12.481C935.916 17.4336 936.847 22.0453 937.473 26.3792C936.711 25.1231 936.104 23.7563 935.707 22.2334C935.707 26.3051 936.752 29.2744 938.105 31.9228C938.195 33.0815 938.254 34.2192 938.279 35.3392C934.628 31.7048 930.923 28.119 929.704 22.2334C929.704 32.9952 935.496 36.0663 936.265 45.8066H933.979V50.1759H1013.32V45.8066H1011.18ZM967.672 34.3299C967.629 30.7441 967.943 27.0089 968.512 23.0923C969.311 25.5337 970.222 27.7936 971.091 30.1233C969.965 31.5399 968.799 32.9133 967.672 34.3299ZM966.612 14.9689L966.331 15.5621C966.376 14.8007 966.405 14.0426 966.416 13.2867C966.472 13.8622 966.537 14.4222 966.612 14.9689ZM1002.71 32.2028C1002.15 31.5133 1001.58 30.8238 1001.02 30.1221C1001.52 28.7974 1002.02 27.4959 1002.52 26.1712C1002.63 28.2263 1002.7 30.2361 1002.71 32.2028Z" fill="#222222"/>
<path fill-rule="evenodd" clip-rule="evenodd" d="M1041.47 45.8066C1041.68 41.8589 1042.43 38.7977 1043.35 36.0221C1044.11 38.8508 1044.66 42.0028 1044.82 45.8066H1041.47ZM1067.96 45.8066C1068.12 42.0028 1068.67 38.8508 1069.43 36.0221C1070.19 38.3052 1070.83 40.781 1071.15 43.7846C1070.91 44.4597 1070.67 45.1337 1070.45 45.8066H1067.96ZM1081.51 45.8066C1078.97 38.0573 1081.23 29.3463 1084.51 18.7218C1082.13 21.9756 1079.9 25.4673 1077.88 29.0851C1077.07 25.433 1076.19 21.8107 1075.26 18.2603C1075.87 15.415 1076.26 12.2077 1076.26 8.36183C1075.85 10.8276 1075.2 13.03 1074.38 15.0431C1072.99 10.0208 1071.47 5.17116 1069.87 0.608154C1070.86 7.26396 1071.72 13.4561 1072.3 19.2741C1071.02 21.4798 1069.55 23.4763 1068.03 25.4053C1066.52 22.8798 1065.32 20.0156 1064.72 16.4685C1064.72 21.0216 1065.41 24.4502 1066.35 27.4804C1064.85 29.3043 1063.35 31.1127 1061.93 33.0306C1062.03 24.272 1064.15 14.6192 1066.84 3.614C1063.45 9.45859 1060.32 15.8089 1057.56 22.3806C1058.3 17.1968 1059.42 11.6798 1060.68 5.74997C1056.61 13.7803 1052.98 22.8123 1050.1 32.0368C1048.91 30.4818 1047.66 28.9867 1046.43 27.4804C1047.37 24.4502 1048.06 21.0216 1048.06 16.4685C1047.46 20.0156 1046.26 22.8809 1044.75 25.4064C1042.92 23.0856 1041.17 20.6641 1039.72 17.8995C1040.57 13.3919 1041.68 8.64404 1042.91 3.614C1041.11 6.71503 1039.39 9.95772 1037.75 13.3C1037.24 11.7705 1036.81 10.1348 1036.51 8.36183C1036.51 9.97653 1036.59 11.4772 1036.71 12.8872C1035.45 18.7716 1032.26 24.8431 1029.13 30.9068C1028.6 29.2323 1028.04 27.5667 1027.46 25.9133C1028.2 21.9036 1029.26 17.6516 1030.45 13.1063C1028.82 15.7359 1027.25 18.4961 1025.78 21.3436C1023.7 15.8964 1021.38 10.6372 1018.9 5.74997C1020.62 13.7848 1022.05 21.0625 1022.67 27.7781C1021.31 30.8072 1020.05 33.8983 1018.93 37.0037C1017.13 35.5251 1015.24 34.1108 1013.46 32.61C1011.15 25.5425 1008.32 18.6587 1005.19 12.481C1006.25 17.4336 1007.18 22.0453 1007.81 26.3792C1007.04 25.1231 1006.44 23.7563 1006.04 22.2334C1006.04 26.3051 1007.08 29.2744 1008.44 31.9228C1008.53 33.0815 1008.59 34.2192 1008.61 35.3392C1004.96 31.7048 1001.26 28.119 1000.04 22.2334C1000.04 32.9952 1005.83 36.0663 1006.6 45.8066H1004.31V50.1759H1083.65V45.8066H1081.51ZM1038 34.3299C1037.96 30.7441 1038.28 27.0089 1038.84 23.0923C1039.64 25.5337 1040.55 27.7936 1041.42 30.1233C1040.3 31.5399 1039.13 32.9133 1038 34.3299ZM1036.94 14.9689L1036.66 15.5621C1036.71 14.8007 1036.74 14.0426 1036.75 13.2867C1036.8 13.8622 1036.87 14.4222 1036.94 14.9689ZM1073.04 32.2028C1072.48 31.5133 1071.91 30.8238 1071.35 30.1221C1071.85 28.7974 1072.36 27.4959 1072.85 26.1712C1072.97 28.2263 1073.03 30.2361 1073.04 32.2028Z" fill="#222222"/>
<path fill-rule="evenodd" clip-rule="evenodd" d="M1185.71 45.8068C1185.91 41.8591 1186.67 38.798 1187.59 36.0223C1188.35 38.8511 1188.9 42.003 1189.06 45.8068H1185.71ZM1212.2 45.8068C1212.35 42.003 1212.91 38.8511 1213.66 36.0223C1214.42 38.3055 1215.07 40.7812 1215.39 43.7848C1215.14 44.4599 1214.91 45.1339 1214.69 45.8068H1212.2ZM1225.75 45.8068C1223.21 38.0576 1225.47 29.3466 1228.75 18.7221C1226.37 21.9758 1224.13 25.4675 1222.11 29.0854C1221.31 25.4332 1220.43 21.8109 1219.49 18.2606C1220.11 15.4152 1220.5 12.2079 1220.5 8.36208C1220.09 10.8278 1219.44 13.0302 1218.62 15.0433C1217.22 10.021 1215.71 5.1714 1214.11 0.608398C1215.09 7.26421 1215.96 13.4563 1216.54 19.2743C1215.26 21.48 1213.79 23.4765 1212.26 25.4056C1210.76 22.88 1209.56 20.0158 1208.96 16.4688C1208.96 21.0218 1209.65 24.4505 1210.59 27.4806C1209.09 29.3045 1207.58 31.1129 1206.17 33.0308C1206.27 24.2723 1208.39 14.6195 1211.08 3.61425C1207.69 9.45883 1204.55 15.8092 1201.8 22.3809C1202.54 17.197 1203.66 11.68 1204.92 5.75022C1200.85 13.7806 1197.21 22.8125 1194.33 32.037C1193.14 30.4821 1191.9 28.9869 1190.67 27.4806C1191.61 24.4505 1192.3 21.0218 1192.3 16.4688C1191.7 20.0158 1190.49 22.8811 1188.99 25.4067C1187.15 23.0859 1185.4 20.6644 1183.96 17.8998C1184.81 13.3921 1185.92 8.64429 1187.14 3.61425C1185.35 6.71528 1183.62 9.95796 1181.99 13.3003C1181.47 11.7708 1181.05 10.135 1180.75 8.36208C1180.75 9.97678 1180.82 11.4775 1180.95 12.8874C1179.69 18.7719 1176.5 24.8433 1173.37 30.9071C1172.84 29.2326 1172.28 27.567 1171.7 25.9135C1172.44 21.9039 1173.5 17.6519 1174.69 13.1066C1173.05 15.7361 1171.49 18.4963 1170.02 21.3439C1167.93 15.8966 1165.62 10.6375 1163.14 5.75022C1164.86 13.785 1166.29 21.0628 1166.91 27.7784C1165.54 30.8074 1164.29 33.8985 1163.17 37.004C1161.36 35.5254 1159.48 34.111 1157.7 32.6103C1155.39 25.5428 1152.56 18.659 1149.43 12.4813C1150.49 17.4339 1151.42 22.0456 1152.04 26.3795C1151.28 25.1233 1150.67 23.7565 1150.28 22.2337C1150.28 26.3053 1151.32 29.2746 1152.68 31.923C1152.77 33.0818 1152.83 34.2195 1152.85 35.3395C1149.2 31.705 1145.49 28.1192 1144.28 22.2337C1144.28 32.9954 1150.07 36.0666 1150.84 45.8068H1148.55V50.1761H1227.89V45.8068H1225.75ZM1182.24 34.3301C1182.2 30.7444 1182.51 27.0092 1183.08 23.0925C1183.88 25.5339 1184.79 27.7939 1185.66 30.1235C1184.54 31.5401 1183.37 32.9135 1182.24 34.3301ZM1181.18 14.9692L1180.9 15.5624C1180.95 14.801 1180.98 14.0429 1180.99 13.287C1181.04 13.8625 1181.11 14.4225 1181.18 14.9692ZM1217.28 32.203C1216.72 31.5135 1216.15 30.824 1215.59 30.1224C1216.09 28.7976 1216.59 27.4961 1217.09 26.1714C1217.2 28.2266 1217.27 30.2364 1217.28 32.203Z" fill="#222222"/>
<path fill-rule="evenodd" clip-rule="evenodd" d="M1258.65 45.8068C1258.85 41.8591 1259.6 38.798 1260.53 36.0223C1261.28 38.8511 1261.84 42.003 1261.99 45.8068H1258.65ZM1285.14 45.8068C1285.29 42.003 1285.85 38.8511 1286.6 36.0223C1287.36 38.3055 1288.01 40.7812 1288.32 43.7848C1288.08 44.4599 1287.85 45.1339 1287.63 45.8068H1285.14ZM1298.69 45.8068C1296.15 38.0576 1298.41 29.3466 1301.68 18.7221C1299.3 21.9758 1297.07 25.4675 1295.05 29.0854C1294.25 25.4332 1293.37 21.8109 1292.43 18.2606C1293.05 15.4152 1293.44 12.2079 1293.44 8.36208C1293.02 10.8278 1292.37 13.0302 1291.56 15.0433C1290.16 10.021 1288.65 5.1714 1287.05 0.608398C1288.03 7.26421 1288.9 13.4563 1289.48 19.2743C1288.2 21.48 1286.73 23.4765 1285.2 25.4056C1283.7 22.88 1282.49 20.0158 1281.89 16.4688C1281.89 21.0218 1282.59 24.4505 1283.52 27.4806C1282.03 29.3045 1280.52 31.1129 1279.11 33.0308C1279.21 24.2723 1281.33 14.6195 1284.01 3.61425C1280.63 9.45883 1277.49 15.8092 1274.74 22.3809C1275.48 17.197 1276.59 11.68 1277.86 5.75022C1273.79 13.7806 1270.15 22.8125 1267.27 32.037C1266.08 30.4821 1264.84 28.9869 1263.6 27.4806C1264.54 24.4505 1265.24 21.0218 1265.24 16.4688C1264.63 20.0158 1263.43 22.8811 1261.93 25.4067C1260.09 23.0859 1258.34 20.6644 1256.89 17.8998C1257.75 13.3921 1258.85 8.64429 1260.08 3.61425C1258.29 6.71528 1256.56 9.95796 1254.93 13.3003C1254.41 11.7708 1253.99 10.135 1253.69 8.36208C1253.69 9.97678 1253.76 11.4775 1253.89 12.8874C1252.62 18.7719 1249.44 24.8433 1246.31 30.9071C1245.77 29.2326 1245.21 27.567 1244.63 25.9135C1245.38 21.9039 1246.43 17.6519 1247.62 13.1066C1245.99 15.7361 1244.43 18.4963 1242.95 21.3439C1240.87 15.8966 1238.55 10.6375 1236.08 5.75022C1237.79 13.785 1239.23 21.0628 1239.84 27.7784C1238.48 30.8074 1237.23 33.8985 1236.1 37.004C1234.3 35.5254 1232.41 34.111 1230.64 32.6103C1228.32 25.5428 1225.5 18.659 1222.37 12.4813C1223.42 17.4339 1224.36 22.0456 1224.98 26.3795C1224.22 25.1233 1223.61 23.7565 1223.22 22.2337C1223.22 26.3053 1224.26 29.2746 1225.61 31.923C1225.7 33.0818 1225.76 34.2195 1225.79 35.3395C1222.14 31.705 1218.43 28.1192 1217.21 22.2337C1217.21 32.9954 1223 36.0666 1223.77 45.8068H1221.49V50.1761H1300.83V45.8068H1298.69ZM1255.18 34.3301C1255.14 30.7444 1255.45 27.0092 1256.02 23.0925C1256.82 25.5339 1257.73 27.7939 1258.6 30.1235C1257.47 31.5401 1256.31 32.9135 1255.18 34.3301ZM1254.12 14.9692L1253.84 15.5624C1253.88 14.801 1253.91 14.0429 1253.92 13.287C1253.98 13.8625 1254.05 14.4225 1254.12 14.9692ZM1290.22 32.203C1289.65 31.5135 1289.09 30.824 1288.53 30.1224C1289.02 28.7976 1289.53 27.4961 1290.03 26.1714C1290.14 28.2266 1290.21 30.2364 1290.22 32.203Z" fill="#222222"/>
<path fill-rule="evenodd" clip-rule="evenodd" d="M1120.59 45.8068C1120.79 41.8591 1121.54 38.798 1122.47 36.0223C1123.22 38.8511 1123.78 42.003 1123.93 45.8068H1120.59ZM1147.08 45.8068C1147.23 42.003 1147.79 38.8511 1148.54 36.0223C1149.3 38.3055 1149.95 40.7812 1150.26 43.7848C1150.02 44.4599 1149.79 45.1339 1149.57 45.8068H1147.08ZM1160.63 45.8068C1158.09 38.0576 1160.35 29.3466 1163.62 18.7221C1161.24 21.9758 1159.01 25.4675 1156.99 29.0854C1156.19 25.4332 1155.31 21.8109 1154.37 18.2606C1154.99 15.4152 1155.38 12.2079 1155.38 8.36208C1154.96 10.8278 1154.31 13.0302 1153.5 15.0433C1152.1 10.021 1150.59 5.1714 1148.99 0.608398C1149.97 7.26421 1150.84 13.4563 1151.42 19.2743C1150.14 21.48 1148.67 23.4765 1147.14 25.4056C1145.64 22.88 1144.43 20.0158 1143.83 16.4688C1143.83 21.0218 1144.53 24.4505 1145.46 27.4806C1143.97 29.3045 1142.46 31.1129 1141.05 33.0308C1141.15 24.2723 1143.27 14.6195 1145.95 3.61425C1142.57 9.45883 1139.43 15.8092 1136.68 22.3809C1137.42 17.197 1138.53 11.68 1139.8 5.75022C1135.73 13.7806 1132.09 22.8125 1129.21 32.037C1128.02 30.4821 1126.78 28.9869 1125.54 27.4806C1126.48 24.4505 1127.18 21.0218 1127.18 16.4688C1126.57 20.0158 1125.37 22.8811 1123.87 25.4067C1122.03 23.0859 1120.28 20.6644 1118.83 17.8998C1119.69 13.3921 1120.79 8.64429 1122.02 3.61425C1120.23 6.71528 1118.5 9.95796 1116.86 13.3003C1116.35 11.7708 1115.93 10.135 1115.63 8.36208C1115.63 9.97678 1115.7 11.4775 1115.83 12.8874C1114.56 18.7719 1111.38 24.8433 1108.25 30.9071C1107.71 29.2326 1107.15 27.567 1106.57 25.9135C1107.32 21.9039 1108.37 17.6519 1109.56 13.1066C1107.93 15.7361 1106.37 18.4963 1104.89 21.3439C1102.81 15.8966 1100.49 10.6375 1098.02 5.75022C1099.73 13.785 1101.17 21.0628 1101.78 27.7784C1100.42 30.8074 1099.17 33.8985 1098.04 37.004C1096.24 35.5254 1094.35 34.111 1092.58 32.6103C1090.26 25.5428 1087.44 18.659 1084.31 12.4813C1085.36 17.4339 1086.3 22.0456 1086.92 26.3795C1086.16 25.1233 1085.55 23.7565 1085.16 22.2337C1085.16 26.3053 1086.2 29.2746 1087.55 31.923C1087.64 33.0818 1087.7 34.2195 1087.73 35.3395C1084.08 31.705 1080.37 28.1192 1079.15 22.2337C1079.15 32.9954 1084.94 36.0666 1085.71 45.8068H1083.43V50.1761H1162.76V45.8068H1160.63ZM1117.12 34.3301C1117.08 30.7444 1117.39 27.0092 1117.96 23.0925C1118.76 25.5339 1119.67 27.7939 1120.54 30.1235C1119.41 31.5401 1118.25 32.9135 1117.12 34.3301ZM1116.06 14.9692L1115.78 15.5624C1115.82 14.801 1115.85 14.0429 1115.86 13.287C1115.92 13.8625 1115.99 14.4225 1116.06 14.9692ZM1152.16 32.203C1151.59 31.5135 1151.03 30.824 1150.47 30.1224C1150.96 28.7976 1151.47 27.4961 1151.97 26.1714C1152.08 28.2266 1152.15 30.2364 1152.16 32.203Z" fill="#222222"/>
<path fill-rule="evenodd" clip-rule="evenodd" d="M1334.19 45.8068C1334.39 41.8591 1335.14 38.798 1336.07 36.0223C1336.83 38.8511 1337.38 42.003 1337.54 45.8068H1334.19ZM1360.68 45.8068C1360.83 42.003 1361.39 38.8511 1362.14 36.0223C1362.9 38.3055 1363.55 40.7812 1363.87 43.7848C1363.62 44.4599 1363.39 45.1339 1363.17 45.8068H1360.68ZM1374.23 45.8068C1371.69 38.0576 1373.95 29.3466 1377.23 18.7221C1374.85 21.9758 1372.61 25.4675 1370.59 29.0854C1369.79 25.4332 1368.91 21.8109 1367.97 18.2606C1368.59 15.4152 1368.98 12.2079 1368.98 8.36208C1368.57 10.8278 1367.92 13.0302 1367.1 15.0433C1365.7 10.021 1364.19 5.1714 1362.59 0.608398C1363.57 7.26421 1364.44 13.4563 1365.02 19.2743C1363.74 21.48 1362.27 23.4765 1360.74 25.4056C1359.24 22.88 1358.04 20.0158 1357.44 16.4688C1357.44 21.0218 1358.13 24.4505 1359.07 27.4806C1357.57 29.3045 1356.06 31.1129 1354.65 33.0308C1354.75 24.2723 1356.87 14.6195 1359.56 3.61425C1356.17 9.45883 1353.03 15.8092 1350.28 22.3809C1351.02 17.197 1352.14 11.68 1353.4 5.75022C1349.33 13.7806 1345.69 22.8125 1342.81 32.037C1341.62 30.4821 1340.38 28.9869 1339.15 27.4806C1340.09 24.4505 1340.78 21.0218 1340.78 16.4688C1340.18 20.0158 1338.97 22.8811 1337.47 25.4067C1335.63 23.0859 1333.88 20.6644 1332.44 17.8998C1333.29 13.3921 1334.4 8.64429 1335.62 3.61425C1333.83 6.71528 1332.1 9.95796 1330.47 13.3003C1329.95 11.7708 1329.53 10.135 1329.23 8.36208C1329.23 9.97678 1329.3 11.4775 1329.43 12.8874C1328.17 18.7719 1324.98 24.8433 1321.85 30.9071C1321.32 29.2326 1320.76 27.567 1320.18 25.9135C1320.92 21.9039 1321.98 17.6519 1323.17 13.1066C1321.53 15.7361 1319.97 18.4963 1318.5 21.3439C1316.41 15.8966 1314.1 10.6375 1311.62 5.75022C1313.33 13.785 1314.77 21.0628 1315.39 27.7784C1314.02 30.8074 1312.77 33.8985 1311.65 37.004C1309.84 35.5254 1307.96 34.111 1306.18 32.6103C1303.87 25.5428 1301.04 18.659 1297.91 12.4813C1298.97 17.4339 1299.9 22.0456 1300.52 26.3795C1299.76 25.1233 1299.15 23.7565 1298.76 22.2337C1298.76 26.3053 1299.8 29.2746 1301.16 31.923C1301.25 33.0818 1301.31 34.2195 1301.33 35.3395C1297.68 31.705 1293.97 28.1192 1292.76 22.2337C1292.76 32.9954 1298.55 36.0666 1299.32 45.8068H1297.03V50.1761H1376.37V45.8068H1374.23ZM1330.72 34.3301C1330.68 30.7444 1330.99 27.0092 1331.56 23.0925C1332.36 25.5339 1333.27 27.7939 1334.14 30.1235C1333.02 31.5401 1331.85 32.9135 1330.72 34.3301ZM1329.66 14.9692L1329.38 15.5624C1329.43 14.801 1329.46 14.0429 1329.47 13.287C1329.52 13.8625 1329.59 14.4225 1329.66 14.9692ZM1365.76 32.203C1365.2 31.5135 1364.63 30.824 1364.07 30.1224C1364.57 28.7976 1365.07 27.4961 1365.57 26.1714C1365.68 28.2266 1365.75 30.2364 1365.76 32.203Z" fill="#222222"/>
<path fill-rule="evenodd" clip-rule="evenodd" d="M1404.52 45.8068C1404.73 41.8591 1405.48 38.798 1406.4 36.0223C1407.16 38.8511 1407.71 42.003 1407.87 45.8068H1404.52ZM1431.01 45.8068C1431.17 42.003 1431.72 38.8511 1432.48 36.0223C1433.24 38.3055 1433.88 40.7812 1434.2 43.7848C1433.96 44.4599 1433.72 45.1339 1433.5 45.8068H1431.01ZM1444.57 45.8068C1442.02 38.0576 1444.29 29.3466 1447.56 18.7221C1445.18 21.9758 1442.95 25.4675 1440.93 29.0854C1440.12 25.4332 1439.25 21.8109 1438.31 18.2606C1438.92 15.4152 1439.31 12.2079 1439.31 8.36208C1438.9 10.8278 1438.25 13.0302 1437.43 15.0433C1436.04 10.021 1434.52 5.1714 1432.92 0.608398C1433.91 7.26421 1434.77 13.4563 1435.35 19.2743C1434.07 21.48 1432.6 23.4765 1431.08 25.4056C1429.57 22.88 1428.37 20.0158 1427.77 16.4688C1427.77 21.0218 1428.46 24.4505 1429.4 27.4806C1427.91 29.3045 1426.4 31.1129 1424.99 33.0308C1425.08 24.2723 1427.2 14.6195 1429.89 3.61425C1426.5 9.45883 1423.37 15.8092 1420.61 22.3809C1421.35 17.197 1422.47 11.68 1423.74 5.75022C1419.67 13.7806 1416.03 22.8125 1413.15 32.037C1411.96 30.4821 1410.71 28.9869 1409.48 27.4806C1410.42 24.4505 1411.11 21.0218 1411.11 16.4688C1410.51 20.0158 1409.31 22.8811 1407.8 25.4067C1405.97 23.0859 1404.22 20.6644 1402.77 17.8998C1403.62 13.3921 1404.73 8.64429 1405.96 3.61425C1404.16 6.71528 1402.44 9.95796 1400.8 13.3003C1400.29 11.7708 1399.87 10.135 1399.57 8.36208C1399.57 9.97678 1399.64 11.4775 1399.76 12.8874C1398.5 18.7719 1395.31 24.8433 1392.18 30.9071C1391.65 29.2326 1391.09 27.567 1390.51 25.9135C1391.25 21.9039 1392.31 17.6519 1393.5 13.1066C1391.87 15.7361 1390.3 18.4963 1388.83 21.3439C1386.75 15.8966 1384.43 10.6375 1381.95 5.75022C1383.67 13.785 1385.1 21.0628 1385.72 27.7784C1384.36 30.8074 1383.1 33.8985 1381.98 37.004C1380.18 35.5254 1378.29 34.111 1376.51 32.6103C1374.2 25.5428 1371.37 18.659 1368.24 12.4813C1369.3 17.4339 1370.23 22.0456 1370.86 26.3795C1370.09 25.1233 1369.49 23.7565 1369.09 22.2337C1369.09 26.3053 1370.14 29.2746 1371.49 31.923C1371.58 33.0818 1371.64 34.2195 1371.66 35.3395C1368.01 31.705 1364.31 28.1192 1363.09 22.2337C1363.09 32.9954 1368.88 36.0666 1369.65 45.8068H1367.36V50.1761H1446.7V45.8068H1444.57ZM1401.06 34.3301C1401.01 30.7444 1401.33 27.0092 1401.9 23.0925C1402.69 25.5339 1403.61 27.7939 1404.47 30.1235C1403.35 31.5401 1402.18 32.9135 1401.06 34.3301ZM1399.99 14.9692L1399.71 15.5624C1399.76 14.801 1399.79 14.0429 1399.8 13.287C1399.86 13.8625 1399.92 14.4225 1399.99 14.9692ZM1436.1 32.203C1435.53 31.5135 1434.96 30.824 1434.41 30.1224C1434.9 28.7976 1435.41 27.4961 1435.9 26.1714C1436.02 28.2266 1436.08 30.2364 1436.1 32.203Z" fill="#222222"/>
</svg>
