<svg width="54" height="61" viewBox="0 0 54 61" fill="none" xmlns="http://www.w3.org/2000/svg">
<path d="M53.1483 0L48.3064 54.242L26.5416 60.2758L4.83691 54.2504L0 0H53.1483Z" fill="#E44D26"/>
<path d="M26.5737 55.6651L44.1607 50.7894L48.2982 4.43701H26.5737V55.6651Z" fill="#F16529"/>
<path d="M17.1621 17.7429H26.5747V11.0894H9.89062L10.0498 12.8744L11.6852 31.2099H26.5747V24.5563H17.7703L17.1621 17.7429ZM18.6617 34.5368H11.9825L12.9146 44.9839L26.5441 48.7673L26.5747 48.759V41.8364L26.5455 41.8441L19.1355 39.8433L18.6617 34.5368Z" fill="#EBEBEB"/>
<path d="M26.551 31.2099H34.7442L33.9717 39.8391L26.5508 41.8421V48.7642L40.1911 44.984L40.2911 43.8598L41.8548 26.343L42.0171 24.5563H26.551V31.2099ZM26.551 17.7267V17.7429H42.6226L42.7559 16.2475L43.0592 12.8744L43.2182 11.0894H26.551V17.7267Z" fill="white"/>
</svg>
