<svg width="92" height="62" viewBox="0 0 92 62" fill="none" xmlns="http://www.w3.org/2000/svg">
<path d="M52.711 50.4486C52.711 50.4941 52.714 50.5457 52.714 50.5972C52.714 52.2894 51.9589 53.8026 50.7641 54.8216L50.755 54.8276C49.4449 55.8951 47.7558 56.5441 45.9151 56.5441C45.7725 56.5441 45.63 56.541 45.4905 56.5319H45.5087C43.2676 56.5016 41.2055 55.7738 39.5164 54.5577L39.5467 54.579L40.4443 52.7746C41.7453 53.5024 43.2919 53.9543 44.9355 54.0179H44.9537C45.0356 54.024 45.1296 54.027 45.2267 54.027C46.2335 54.027 47.1705 53.7117 47.9378 53.1749L47.9226 53.184C48.6171 52.6563 49.0598 51.8315 49.0598 50.9035C49.0598 50.8853 49.0598 50.8702 49.0598 50.852V50.855C49.0598 49.6056 48.1895 48.5442 46.6034 47.6526C45.1326 46.846 42.1971 45.1629 42.1971 45.1629C40.7476 44.2652 39.7984 42.6853 39.7984 40.8839C39.7984 40.8203 39.7984 40.7566 39.8014 40.6929V40.702C39.7984 40.6444 39.7984 40.5777 39.7984 40.5109C39.7984 38.9492 40.4868 37.5481 41.5755 36.5959L41.5815 36.5898C42.74 35.6073 44.2532 35.0099 45.906 35.0099C46.0121 35.0099 46.1152 35.0129 46.2183 35.016H46.2031C46.2304 35.016 46.2638 35.016 46.2972 35.016C48.235 35.016 50.0393 35.5952 51.5435 36.5929L51.5071 36.5716L50.7004 38.376C49.5147 37.8423 48.1318 37.5208 46.6762 37.5057H46.6702C46.5974 37.4996 46.5155 37.4966 46.4306 37.4966C45.5815 37.4966 44.7991 37.7938 44.1865 38.2911L44.1926 38.285C43.6194 38.7612 43.2555 39.4738 43.2525 40.2714C43.2525 41.5147 44.138 42.5822 45.7756 43.4919C47.2645 44.3077 50.2728 46.0302 50.2728 46.0302C51.7527 46.9005 52.7322 48.4835 52.7322 50.297C52.7322 50.3516 52.7322 50.4092 52.7292 50.4638V50.4547L52.711 50.4486ZM58.9945 52.0589C58.1666 50.4062 57.6844 48.4593 57.6844 46.4002C57.6844 46.0757 57.6965 45.7542 57.7208 45.4388L57.7178 45.4813C57.7178 40.2026 59.322 37.5623 62.5304 37.5603C62.6093 37.5542 62.7033 37.5512 62.8003 37.5512C64.2408 37.5512 65.5054 38.3032 66.2241 39.4374L66.2332 39.4526C67.055 41.0962 67.5372 43.0371 67.5372 45.0871C67.5372 45.4025 67.525 45.7148 67.5038 46.0241L67.5069 45.9817C67.5069 51.3028 65.9026 53.9654 62.6942 53.9694C62.6123 53.9755 62.5183 53.9785 62.4243 53.9785C60.9838 53.9785 59.7162 53.2264 58.9975 52.0923L58.9884 52.0771L58.9945 52.0589ZM71.4704 56.7654L67.6191 54.8701C67.9708 54.5759 68.2862 54.2666 68.5773 53.933L68.5864 53.9239C70.1421 51.8254 71.0762 49.1841 71.0762 46.3274C71.0762 45.9968 71.064 45.6693 71.0398 45.3448L71.0428 45.3873C71.0428 38.4529 68.3206 34.9836 62.8761 34.9796C62.7548 34.9735 62.6123 34.9705 62.4698 34.9705C60.1438 34.9705 58.0544 35.9924 56.6321 37.6148L56.626 37.6239C55.0764 39.7225 54.1454 42.3608 54.1454 45.2175C54.1454 45.5389 54.1575 45.8573 54.1818 46.1727L54.1788 46.1303C54.1515 46.4366 54.1363 46.7944 54.1363 47.1553C54.1363 49.8057 54.9672 52.2621 56.3804 54.2788L56.3531 54.2393C57.7147 55.6889 59.6465 56.5926 61.7844 56.5926C61.9846 56.5926 62.1817 56.5835 62.3758 56.5683L62.3485 56.5714C62.3758 56.5714 62.4122 56.5714 62.4455 56.5714C63.3886 56.5714 64.3014 56.4349 65.1657 56.1832L65.099 56.2014L70.1209 59.1278L71.4856 56.7715L71.4704 56.7654ZM84.0494 56.2529H74.0814V35.298H77.4354V53.6783H84.0494V56.2529Z" fill="#F8981D"/>
<path d="M88.0078 28.2715C87.7591 28.2533 87.471 28.2412 87.1799 28.2412C85.7121 28.2412 84.308 28.5141 83.0162 29.0115L83.095 28.9842C82.716 29.1358 82.1094 29.1358 82.0579 29.618C82.2671 29.8181 82.2975 30.1487 82.4733 30.4277C82.8282 31.0281 83.2648 31.5376 83.7743 31.9621L83.7834 31.9712C84.3141 32.3867 84.8448 32.79 85.4028 33.1448C86.3884 33.7513 87.5074 34.1122 88.4717 34.7218C89.0206 35.0766 89.5817 35.5284 90.1396 35.9075C90.4156 36.0955 90.5945 36.4382 90.9493 36.5595V36.4837C90.7765 36.2562 90.7219 35.9257 90.5521 35.674C90.2973 35.4192 90.0456 35.1918 89.7939 34.9431C89.0419 33.9576 88.1715 33.1145 87.195 32.4109L87.1586 32.3867C86.349 31.8348 84.5749 31.0615 84.2413 30.1305L84.1928 30.0759C84.8539 29.9819 85.4422 29.8424 86.0093 29.6544L85.9365 29.6756C86.7978 29.4481 87.5862 29.4967 88.4748 29.2753C88.8751 29.1722 89.2814 29.0478 89.6878 28.9205V28.693C89.2329 28.2381 88.8933 27.6195 88.4232 27.195C87.1829 26.1032 85.8152 25.0782 84.3748 24.1563L84.2383 24.0744C83.4438 23.568 82.4339 23.2405 81.5969 22.8099C81.2937 22.6582 80.7872 22.5824 80.6114 22.3277C80.2171 21.7667 79.8684 21.1238 79.5924 20.4445L79.5682 20.3778C78.8242 18.9343 78.1327 17.4655 77.4939 15.9715C77.0572 14.81 76.6235 13.8578 76.1353 12.9359L76.2051 13.0784C73.8215 9.07846 70.5008 5.86395 66.5373 3.67141L66.4069 3.60469C65.4698 3.14071 64.3811 2.77984 63.2378 2.57666L63.162 2.56453C62.5282 2.5342 61.8974 2.48871 61.2667 2.46142C60.8239 2.17636 60.4418 1.88523 60.084 1.56378L60.0931 1.57288C58.6526 0.663113 54.9256 -1.30805 53.8642 1.29995C53.1819 2.9436 54.8771 4.56601 55.4624 5.39997C55.9294 5.95493 56.3539 6.5766 56.7209 7.23466L56.7512 7.29531C56.9301 7.73504 56.9786 8.18688 57.1576 8.6448C57.5973 10.0155 58.0431 11.1406 58.5495 12.2293L58.4707 12.0413C58.7709 12.6447 59.0832 13.1572 59.432 13.6425L59.4077 13.6061C59.6109 13.882 59.9597 14.0124 60.0415 14.4673C59.7807 15.0162 59.5775 15.653 59.4653 16.3172L59.4593 16.3596C59.1318 17.3664 58.9407 18.5279 58.9407 19.7318C58.9407 21.615 59.4047 23.3891 60.2235 24.9478L60.1932 24.8872C60.5995 25.5149 61.5639 26.9099 62.8557 26.3762C63.9929 25.9213 63.7412 24.4808 64.0688 23.2132C64.1446 22.9099 64.096 22.7098 64.2507 22.5036V22.5612C64.6055 23.2739 64.9634 23.9531 65.2878 24.6658C66.2037 25.985 67.2924 27.107 68.5357 28.0319L68.5751 28.0592C69.1817 28.5141 69.6638 29.3026 70.422 29.5816V29.5058H70.3643C70.1915 29.3177 70.0004 29.1509 69.7912 29.0084L69.7791 29.0024C69.309 28.5414 68.8723 28.0441 68.4781 27.5194L68.4538 27.4861C67.4652 26.1517 66.5251 24.6415 65.7094 23.0555L65.6214 22.8705C65.206 22.076 64.8572 21.2178 64.5236 20.4323C64.372 20.1291 64.372 19.6742 64.1173 19.5226C63.6685 20.026 63.2651 20.587 62.9285 21.1905L62.9043 21.239C62.5161 22.3702 62.2614 23.6772 62.1946 25.0327V25.0661C62.0915 25.0934 62.1431 25.0661 62.0915 25.1207C61.2818 24.9236 61.0028 24.0835 60.6996 23.377C60.2872 22.267 60.0476 20.9812 60.0476 19.6439C60.0476 18.5643 60.2022 17.5211 60.4934 16.5355L60.4752 16.6144C60.6541 16.0837 61.4122 14.4097 61.109 13.9002C60.9513 13.418 60.4509 13.1421 60.1719 12.7509C59.8414 12.2839 59.5381 11.7532 59.2864 11.1922L59.2622 11.1315C58.6557 9.7153 58.3524 8.14443 57.6943 6.72823C57.2971 5.98828 56.8786 5.35145 56.4085 4.75706L56.4298 4.78436C55.9294 4.20514 55.4684 3.55921 55.0681 2.87385L55.0348 2.81319C54.9104 2.53723 54.7315 2.07932 54.9317 1.77606C54.9681 1.60017 55.1076 1.46371 55.2865 1.43641C55.6201 1.16348 56.5602 1.51829 56.8877 1.66992C57.849 2.03383 58.6769 2.46142 59.4441 2.96482L59.3956 2.9345C59.7504 3.18317 60.1355 3.66534 60.5904 3.78968H61.1211C61.9308 3.9686 62.8466 3.84426 63.6048 4.06564C64.9967 4.53569 66.2007 5.124 67.3136 5.84575L67.2499 5.80633C70.5978 7.96854 73.2786 10.8919 75.0921 14.346L75.1528 14.4703C75.456 15.0526 75.5894 15.5894 75.8654 16.1959C76.3961 17.4453 77.0511 18.7099 77.5909 19.9168C78.1034 21.2147 78.7099 22.3368 79.4317 23.3709L79.3953 23.3163C79.7744 23.847 81.2967 24.123 81.979 24.3989C82.6978 24.6506 83.2739 24.8902 83.8319 25.1601L83.7197 25.1116C84.5901 25.6423 85.4392 26.2488 86.258 26.831C86.6734 27.1191 87.938 27.7529 88.0138 28.2624L88.0078 28.2715ZM62.1673 6.25515C62.1613 6.25515 62.1522 6.25515 62.1431 6.25515C61.7822 6.25515 61.4335 6.30064 61.0999 6.38555L61.1302 6.37948V6.428H61.1818C61.4426 6.81617 61.7094 7.15278 61.9975 7.46817L61.9915 7.4621C62.1946 7.86847 62.3705 8.2718 62.5737 8.67513L62.6253 8.61751C62.9558 8.35671 63.1651 7.95641 63.1651 7.50759C63.1651 7.45301 63.162 7.40145 63.156 7.34687V7.35293C63.0043 7.17401 62.9831 6.99812 62.8527 6.82224C62.7011 6.5675 62.3766 6.44317 62.1704 6.24302L62.1673 6.25515Z" fill="#5D87A1"/>
<path d="M37.0882 40.7929C36.2178 47.1128 34.2254 52.817 31.3111 57.9269L31.4324 57.6934C30.2649 59.9405 28.0572 61.5053 25.4644 61.757L25.434 61.76C24.6486 61.7176 23.9178 61.5296 23.2536 61.2233L23.29 61.2384V59.3674C23.7055 59.431 24.1846 59.4674 24.6729 59.4674C24.7002 59.4674 24.7275 59.4674 24.7578 59.4674C24.8063 59.4705 24.8579 59.4705 24.9124 59.4705C25.7889 59.4705 26.5925 59.152 27.2111 58.6213L27.2051 58.6244C27.8722 58.0755 28.2998 57.2567 28.3241 56.3348C28.1633 55.0065 27.8571 53.7935 27.4173 52.6502L27.4537 52.7533L23.6115 40.7929H27.0595L29.8161 49.736C30.3074 50.9975 30.5924 52.4592 30.5924 53.9846C30.5924 53.9876 30.5924 53.9906 30.5924 53.9906C32.0541 50.1636 33.164 45.6996 33.7281 41.0689L33.7554 40.7899L37.0882 40.7929ZM21.8647 56.2529H18.353C18.254 50.671 17.9133 45.1002 17.3311 39.5405H17.3007L11.9574 56.2529H9.28569L3.97871 39.5405H3.94232C3.52787 45.1022 3.28123 50.673 3.20238 56.2529H0C0.208236 48.8029 0.725793 41.8169 1.55267 35.2949H5.91045L10.9688 50.6973H10.9991L16.1029 35.2949H20.2514C21.1693 42.9309 21.7101 49.9169 21.8738 56.2529H21.8647Z" fill="#5D87A1"/>
</svg>
