<svg width="91" height="91" viewBox="0 0 91 91" fill="black" xmlns="http://www.w3.org/2000/svg">
<path d="M72.6311 63.5201L49.3754 14.1332C48.7867 12.895 47.5665 12.0791 46.1973 12.0083C44.8249 11.9163 43.5153 12.5953 42.7995 13.7698L17.576 54.6232C16.793 55.8826 16.8095 57.4813 17.6183 58.7243L29.9502 77.8215C30.9084 79.2937 32.7209 79.9603 34.4046 79.4595L70.1918 68.8738C71.282 68.5551 72.1805 67.7793 72.6548 66.7472C73.1226 65.7201 73.1146 64.5391 72.6328 63.5185L72.6311 63.5201ZM67.4245 65.6383L37.057 74.618C36.1306 74.8936 35.2414 74.0906 35.4341 73.1558L46.2835 21.2061C46.4864 20.2341 47.8286 20.0803 48.2529 20.9796L68.3373 63.63C68.517 64.0147 68.5192 64.4587 68.3433 64.8451C68.1673 65.2315 67.8309 65.5214 67.4228 65.6383H67.4245Z" fill="white"/>
</svg>
