<svg width="149" height="163" viewBox="0 0 149 163" fill="none" xmlns="http://www.w3.org/2000/svg">
<path d="M94.0249 76.094L61.382 86.753L32.9831 99.2869L25.0381 101.384C23.0147 103.309 20.8931 105.258 18.5984 107.232C16.0818 109.403 13.7378 111.378 11.9364 112.808C9.938 114.388 6.97716 117.348 5.47221 119.223C3.22681 122.036 1.4504 125.021 0.685466 127.316C-0.671677 131.461 -0.0051708 135.656 2.61013 139.53C5.96567 144.464 12.6523 149.497 20.4488 152.927C24.4215 154.679 31.1079 156.924 36.141 158.182C44.5051 160.304 60.691 162.599 69.5979 162.945C71.3988 163.019 73.817 163.019 73.9154 162.945C74.1131 162.821 75.4948 160.181 77.0988 156.9C82.5763 145.723 86.524 135.236 88.6704 126.28C89.9533 120.852 90.9648 113.623 91.6308 105.061C91.8038 102.668 91.8776 94.6491 91.7295 91.9348C91.5073 87.4937 91.1125 83.8917 90.4962 80.3633C90.3974 79.845 90.3724 79.3761 90.422 79.3516C90.5204 79.2776 90.8165 79.179 94.8383 78.019L94.0244 76.0948V76.0942H94.0249V76.094ZM86.5736 80.4615C86.8696 80.4615 87.6589 88.036 87.8562 92.823C87.9058 93.8345 87.8808 94.5006 87.8316 94.5006C87.6344 94.5006 83.6618 92.1569 80.8248 90.3805C78.3573 88.826 73.6696 85.717 72.9294 85.1249C72.6822 84.9523 72.7068 84.9277 74.7303 84.2366C78.1596 83.0768 86.3022 80.4615 86.5736 80.4615ZM69.9437 85.9391C70.1659 85.9391 70.733 86.2595 72.0901 87.0986C77.1727 90.2814 84.0815 94.1306 87.0422 95.4138C87.9549 95.8085 88.0534 95.6603 85.9565 97.0916C81.466 100.151 75.8648 103.161 69.0056 106.196C67.7968 106.739 66.7853 107.158 66.7607 107.158C66.7116 107.158 66.8592 106.542 67.0563 105.801C68.7095 99.6571 69.6473 93.4396 69.6969 88.4555C69.7215 85.988 69.7215 85.988 69.9437 85.9144C69.8941 85.9391 69.9186 85.9391 69.9437 85.9391ZM66.5142 87.2466C66.6617 87.3944 66.5633 92.9215 66.3658 94.4265C65.9217 98.0289 65.2309 101.384 64.0963 105.16C63.8248 106.072 63.5777 106.837 63.5289 106.887C63.4297 107.01 60.0494 103.704 58.9392 102.421C57.0145 100.2 55.5098 97.9793 54.3995 95.8082C53.8319 94.6978 52.9439 92.5268 53.0177 92.4526C53.4124 92.1813 66.4154 87.1481 66.5142 87.2466ZM50.3775 93.5876C50.4021 93.5876 50.4267 93.5876 50.4517 93.6122C50.5009 93.6615 50.6739 94.0565 50.8219 94.5004C51.6112 96.6471 53.3874 99.8052 54.9176 101.829C56.5954 104.049 58.7915 106.418 60.6168 107.972C61.2093 108.466 61.7518 108.934 61.8256 109.008C61.974 109.156 62.0233 109.132 58.0013 110.662C53.3386 112.438 48.2556 114.214 42.4325 116.089C41.0415 116.538 39.6518 116.99 38.2634 117.447C38.0409 117.521 38.1151 117.397 38.7566 116.386C41.6432 111.87 46.035 103.013 48.5025 96.7457C48.922 95.66 49.3413 94.5746 49.4155 94.3278C49.5143 93.9822 49.6374 93.8589 49.958 93.6861C50.1307 93.6372 50.3037 93.5876 50.3775 93.5876ZM45.4433 95.6355C45.5171 95.6851 44.2588 98.3248 43.0251 100.743C40.6316 105.406 38.0163 109.996 34.5128 115.572C33.9207 116.534 33.3534 117.422 33.2792 117.521C33.156 117.694 33.1064 117.644 32.7117 116.879C31.8728 115.226 31.1817 113.104 30.8117 111.155C30.4415 109.23 30.5156 105.875 30.9353 103.802C31.2557 102.273 31.2313 102.298 31.9714 101.927C35.1296 100.324 45.3445 95.5368 45.4433 95.6355ZM88.0045 97.3628V98.399C88.0045 103.901 87.4124 111.451 86.5485 116.954C86.4005 117.916 86.2767 118.705 86.2525 118.73C86.2525 118.73 85.5371 118.533 84.6982 118.286C80.9973 117.126 76.9755 115.423 73.3484 113.425C70.9547 112.118 67.4761 109.971 67.5749 109.872C67.5992 109.847 68.6357 109.305 69.8445 108.663C74.681 106.146 79.3192 103.432 83.341 100.743C84.8462 99.7314 87.1157 98.1032 87.6097 97.6589L88.0045 97.3628ZM26.8146 104.666C26.9132 104.666 26.8885 104.863 26.7405 105.751C26.6417 106.393 26.5185 107.577 26.4695 108.391C26.2716 111.994 26.8642 114.659 28.6406 118.31C29.134 119.322 29.5291 120.161 29.504 120.185C29.3312 120.333 12.9978 125.12 7.86542 126.526C6.33579 126.946 5.00368 127.316 4.90446 127.34C4.73209 127.39 4.70729 127.365 4.78124 126.945C5.34865 123.319 8.1122 118.581 11.9611 114.584C14.5272 111.92 16.5752 110.365 20.0788 108.366C22.5954 106.936 26.4691 104.789 26.7652 104.69C26.7654 104.666 26.79 104.666 26.8146 104.666ZM65.3051 111.55C65.3296 111.525 65.9217 111.846 66.6372 112.265C71.9174 115.325 79.2699 118.162 85.5366 119.618L86.1045 119.741L85.3147 120.185C82.0334 122.011 71.2511 126.501 60.2224 130.622C58.6183 131.214 57.0394 131.806 56.7429 131.93C56.4469 132.053 56.1754 132.127 56.1754 132.103C56.1754 132.078 56.6198 131.214 57.1869 130.153C60.2711 124.38 63.3802 117.348 64.9592 112.463C65.157 111.994 65.28 111.575 65.3051 111.55ZM61.382 112.833C61.407 112.858 61.2094 113.376 60.9625 113.968C58.8161 119.174 56.0029 124.849 52.4008 131.214C51.4881 132.843 50.723 134.151 50.698 134.151C50.6738 134.151 49.9333 133.706 49.0452 133.164C43.8141 129.956 39.1757 126.008 36.1412 122.184L35.6969 121.641L37.9419 121.024C45.9856 118.829 52.8198 116.46 59.6052 113.549C60.5677 113.154 61.3574 112.833 61.382 112.833ZM85.7593 121.345C85.7838 121.913 84.5254 126.995 83.489 130.671C82.6256 133.756 81.885 136.174 80.5283 140.442C79.9362 142.318 79.4184 143.871 79.3934 143.871C79.3688 143.871 79.2208 143.847 79.0728 143.798C71.7449 142.465 65.1817 140.615 59.0134 138.148C57.286 137.456 54.8188 136.346 54.6708 136.223C54.6216 136.173 56.1021 135.483 57.9772 134.668C69.2035 129.758 80.8493 124.182 84.8462 121.789C85.3148 121.493 85.6851 121.345 85.7593 121.345ZM29.4795 123.27C29.5288 123.319 26.3953 127.834 22.0032 133.978C20.4736 136.124 18.6972 138.641 18.0311 139.579C17.3648 140.516 16.3534 141.997 15.7858 142.885L14.7491 144.489L13.6387 143.551C12.331 142.465 10.0613 140.146 9.04973 138.863C6.92766 136.223 5.49691 133.435 4.92938 130.894C4.65791 129.71 4.6579 129.117 4.90435 129.044C5.27435 128.945 11.8622 127.39 18.0309 125.959C21.4605 125.17 25.4326 124.232 26.8637 123.887C28.2949 123.541 29.4549 123.27 29.4795 123.27ZM32.6375 124.479L33.4268 125.367C36.9802 129.339 40.6071 132.276 44.9989 134.841C45.7886 135.286 46.3806 135.68 46.331 135.705C46.1587 135.829 31.0829 141.182 24.1005 143.6C20.1777 144.982 16.9452 146.092 16.9209 146.092C16.8963 146.092 16.6741 145.944 16.427 145.772L15.9831 145.451L16.6986 144.415C19.0177 141.059 21.9296 137.383 28.2706 129.734L32.6375 124.479ZM52.3271 138.567C52.3513 138.542 53.437 138.937 54.7692 139.431C57.9772 140.64 60.5181 141.404 63.9233 142.268C68.1179 143.329 74.1874 144.366 77.7652 144.661C78.3081 144.711 78.6041 144.76 78.5053 144.834C78.3323 144.933 74.7057 146.142 72.0409 146.981C67.7968 148.313 54.8435 152.137 44.2835 155.172C42.3342 155.74 40.6563 156.209 40.5577 156.233C40.3112 156.283 39.4967 156.06 39.4967 155.962C39.4967 155.913 40.0888 155.148 40.8045 154.309C44.3572 150.065 47.8858 145.328 50.8219 140.837C51.6359 139.603 52.3271 138.592 52.3271 138.567ZM47.9842 138.691C48.0088 138.715 46.2572 141.528 43.198 146.364C41.89 148.412 40.4342 150.731 39.916 151.545C39.4225 152.335 38.6824 153.569 38.2631 154.259L37.5475 155.518L37.1775 155.419C36.289 155.172 30.0468 152.976 28.3936 152.31C26.3456 151.496 24.2237 150.509 22.6445 149.67C20.6709 148.609 18.2037 147.03 18.4009 146.981C18.4502 146.956 21.8305 146.043 25.9014 144.933C36.7085 141.996 42.7039 140.294 46.6273 139.061C47.3429 138.838 47.9596 138.666 47.9842 138.691ZM78.7025 145.895H78.7271C78.8259 146.142 74.8291 157.245 73.3727 160.748C73.0524 161.538 72.9294 161.735 72.7564 161.71C72.3369 161.686 66.5389 160.872 63.0102 160.353C56.8668 159.416 46.5532 157.614 43.9627 157.023L43.3706 156.899L47.0464 156.06C54.9422 154.284 58.7418 153.321 62.5907 152.137C67.4515 150.657 72.263 148.806 77.1234 146.536C77.8882 146.191 78.5298 145.919 78.7025 145.895Z" fill="url(#paint0_linear_2094_49)"/>
<path d="M60.3705 0.00126373C59.8277 -0.0723506 51.0683 3.08578 45.4184 5.38011C37.7941 8.48932 31.8729 11.4503 28.2211 14.0157C26.8643 14.9784 25.1615 16.6807 24.8904 17.3467C24.7918 17.5935 24.7422 17.8895 24.7422 18.1856L28.0486 21.3191L35.9192 23.8358L54.6463 27.1915L76.0625 30.8678L76.2847 29.0174C76.2109 29.0174 76.1613 28.9928 76.0879 28.9928L73.2744 28.5485L72.7073 27.537C69.7957 22.4048 66.5882 16.0391 64.7132 11.7459C63.2576 8.41491 61.8758 4.56626 61.1107 1.80271C60.6912 0.124939 60.6421 0.0262946 60.3711 0.0017186V0.00114915H60.3705V0.00126373ZM59.9752 1.25999H60.0006C60.0248 1.28434 60.1236 1.97565 60.2225 2.78939C60.6415 6.24414 61.407 9.57454 62.6158 13.177C63.5285 15.8911 63.5285 15.7432 62.4678 15.4223C59.9511 14.7316 48.6755 12.7824 40.5086 11.6475C39.2009 11.4746 38.0905 11.302 38.0905 11.2775C37.9919 11.1788 43.9873 8.04502 46.6274 6.81167C50.0076 5.25689 59.2847 1.38321 59.9752 1.25999ZM36.1903 12.3135L37.153 12.6339C42.3833 14.4107 55.5339 16.9274 62.7883 17.5195C63.6022 17.5936 64.2934 17.6678 64.3177 17.6678C64.3423 17.6924 63.6518 18.0625 62.7634 18.4818C59.2601 20.2336 55.4109 22.3802 52.7461 24.0334C51.9568 24.5267 51.241 24.9217 51.1425 24.9217C51.0438 24.9217 50.5259 24.8229 49.983 24.7489L48.9961 24.6006L46.5291 22.1825C42.1865 17.9636 38.7815 14.7068 37.4737 13.4729L36.1903 12.3135ZM35.2037 13.0782L38.6826 17.4209C40.5822 19.8142 42.5068 22.158 42.9266 22.6759C43.3457 23.1944 43.6913 23.614 43.6668 23.6386C43.568 23.7126 38.6337 22.7501 36.0179 22.1583C33.3286 21.5412 32.2183 21.2452 30.5652 20.7273L29.2081 20.283V19.9373C29.2327 18.2841 31.3302 15.817 34.883 13.3005L35.2037 13.0782ZM64.7622 18.9999C64.8611 18.9999 64.9841 19.2219 65.2801 19.8881C66.119 21.7384 68.7349 26.7227 69.3758 27.6848C69.5738 28.0059 69.9186 28.0305 66.4401 27.4629C58.076 26.1056 55.3863 25.6619 55.3863 25.6126C55.3863 25.588 55.6331 25.4152 55.9539 25.2423C58.5447 23.8116 61.1599 21.9855 63.4794 20.0363C64.0469 19.5674 64.565 19.1233 64.6634 19.0492C64.688 18.9999 64.7376 18.9753 64.7622 18.9999Z" fill="url(#paint1_linear_2094_49)"/>
<path d="M25.0626 17.0015C25.0626 17.0015 24.5201 17.8654 25.0381 19.1485C25.3592 19.9377 26.2966 20.8998 27.3574 21.887C27.3574 21.887 38.337 32.5951 39.6694 34.125C45.7388 41.1321 48.379 48.0407 48.6258 57.5647C48.7738 63.6836 47.6138 69.0624 44.7273 75.3048C39.5952 86.5066 28.7635 98.868 12.0597 112.586L14.5028 111.772C16.0818 110.588 18.2284 109.33 23.2616 106.566C34.8825 100.2 47.9595 94.3525 63.9973 88.3323C87.0909 79.647 125.064 69.4814 146.677 66.1756L148.923 65.8299L148.577 65.2871C146.603 62.2275 145.246 60.3279 143.617 58.3047C138.88 52.4324 133.132 47.6706 126.1 43.7228C116.428 38.3196 103.918 34.1005 88.0782 30.9669C85.0927 30.3745 78.5296 29.2396 73.2002 28.4255C61.8997 26.6741 54.5964 25.4648 46.5531 24.0831C43.6665 23.5894 39.3483 22.8494 36.4862 22.2327C35.0059 21.9117 32.1687 21.2456 29.9481 20.4808C28.1717 19.7896 25.6054 19.0987 25.0626 17.0015ZM31.4287 23.17C31.4531 23.1457 31.8477 23.2933 32.3662 23.4661C33.3038 23.7865 34.5127 24.1567 35.9441 24.5518C37.027 24.8496 38.1126 25.1375 39.2009 25.4152C40.6812 25.7851 41.9147 26.1307 41.9393 26.1307C42.1123 26.3035 44.6044 34.2724 45.4433 37.332C45.7636 38.492 46.0108 39.4786 45.9861 39.4786C45.9608 39.5037 45.6897 39.0839 45.3691 38.5165C42.4822 33.4337 37.9177 28.2771 32.6375 24.1318C31.947 23.6388 31.4287 23.1946 31.4287 23.17ZM43.5679 26.5256C43.6914 26.5256 44.2342 26.5997 44.9 26.7476C49.0946 27.6851 56.6201 29.1162 61.4312 29.9305C62.2455 30.0537 62.8872 30.2021 62.8872 30.2511C62.8872 30.3007 62.5908 30.4731 62.2205 30.6707C61.4067 31.09 58.1249 33.039 57.0396 33.7794C54.3006 35.6052 51.8335 37.579 50.0569 39.3554C49.3415 40.0711 48.7243 40.6632 48.7243 40.6632C48.7243 40.6632 48.5767 40.2439 48.4528 39.7254C47.5651 36.2958 45.7143 31.213 44.0366 27.6356C43.7651 27.0683 43.5429 26.55 43.5429 26.5009C43.5429 26.5502 43.5429 26.5256 43.5679 26.5256ZM64.9348 30.5967C65.0829 30.6458 65.3296 31.4848 65.823 33.3352C66.7361 36.9131 67.1556 40.9101 67.0075 44.6357C66.9579 45.672 66.9088 46.6341 66.8591 46.7578L66.7853 47.0042L65.5024 46.585C62.8623 45.7461 58.5693 44.4875 54.8931 43.4514C52.7955 42.8839 51.0935 42.3657 51.0935 42.3165C51.0935 42.1682 54.1531 39.1089 55.4606 37.9493C57.9522 35.7531 64.7126 30.5225 64.9348 30.5967ZM66.6373 30.8431C66.7115 30.7695 76.8521 32.5209 81.4661 33.4093C84.8959 34.0753 89.8797 35.1117 90.1757 35.2353C90.3237 35.2844 89.8054 35.5805 88.1522 36.3206C81.6387 39.257 76.8024 41.8966 71.9917 45.1045C70.7333 45.9434 69.6722 46.6341 69.6476 46.6341C69.623 46.6341 69.5984 45.9188 69.5984 45.0551C69.5984 40.3674 68.6607 35.63 66.9332 31.633C66.7606 31.2382 66.6126 30.8681 66.6373 30.8431ZM92.8649 36.0248C92.9391 36.0987 92.6181 38.0975 92.3221 39.2816C91.4339 42.958 89.0407 48.4111 86.1049 53.5428C85.5863 54.4558 85.1177 55.196 85.068 55.2206C85.0191 55.2452 84.3528 54.8749 83.5878 54.4309C80.7258 52.7531 77.4691 51.1741 73.9159 49.6935C72.9293 49.2742 72.0655 48.9286 72.0408 48.8796C71.8678 48.7314 79.8128 43.476 84.0073 40.9593C87.3383 38.9363 92.7662 35.9259 92.8649 36.0248ZM94.74 36.3207C94.9622 36.3207 99.4528 37.5545 101.796 38.2454C107.595 39.9727 114.256 42.4151 118.599 44.3889L120.4 45.2035L119.142 45.4993C108.533 47.9418 99.4528 50.7549 90.6936 54.3078C89.978 54.6038 89.3364 54.8506 89.2876 54.8506C89.238 54.8506 89.4848 54.2832 89.8055 53.5921C92.4456 47.9914 94.1481 42.1438 94.5671 37.1595C94.5923 36.6906 94.6658 36.3207 94.74 36.3207ZM50.0323 46.585C50.1061 46.5108 53.5359 47.3252 55.3864 47.8429C58.1991 48.6328 64.1698 50.631 64.1698 50.7793C64.1698 50.8039 63.5038 51.3714 62.7146 52.0625C59.4824 54.7518 56.3733 57.5889 52.6474 61.1913C51.537 62.2527 50.5997 63.1161 50.5506 63.1161C50.501 63.1161 50.4767 62.9677 50.501 62.7705C51.0684 58.6252 50.9454 53.2959 50.1558 47.8925C50.0815 47.2014 50.0076 46.6095 50.0323 46.585ZM122.103 46.6592C122.152 46.7082 120.524 49.2742 119.487 50.7298C118.007 52.8516 115.835 55.6649 110.925 61.8331C108.335 65.0897 105.423 68.7663 104.462 69.9999C103.474 71.2335 102.66 72.2695 102.635 72.2695C102.611 72.2695 102.29 71.8257 101.945 71.283C99.1812 67.1377 95.8748 63.5107 91.9517 60.2539C91.2116 59.6369 90.3978 58.9707 90.1263 58.7733C89.8548 58.576 89.6326 58.3786 89.6326 58.354C89.6326 58.2802 93.8267 56.4786 97.0101 55.1959C102.586 52.9258 110.185 50.2119 115.885 48.4599C118.87 47.5225 122.053 46.6096 122.103 46.6592ZM124.003 47.1523C124.101 47.1278 124.694 47.4239 125.409 47.8429C131.405 51.2725 137.277 55.6893 141.916 60.2292C143.223 61.5124 146.455 64.8679 146.406 64.8925C146.406 64.8925 145.271 64.9912 143.939 65.0897C133.551 65.8795 120.253 68.0751 107.472 71.1592C106.608 71.3564 105.843 71.5292 105.794 71.5292C105.745 71.5292 106.707 70.5671 107.916 69.4076C115.417 62.1783 118.846 57.6138 122.893 49.4714C123.46 48.2627 123.953 47.2265 124.003 47.1523C123.978 47.1523 123.978 47.1523 124.003 47.1523ZM69.0552 52.7781C69.4008 52.8517 72.6084 54.3574 75.0262 55.566C77.2468 56.6759 80.5779 58.4528 80.7505 58.6006C80.7751 58.6252 79.5906 59.2421 78.1355 59.9577C73.4965 62.277 69.5243 64.4727 65.3789 66.9894C64.1947 67.7051 63.2078 68.2976 63.1832 68.2976C63.0845 68.2976 63.109 68.1983 63.7753 66.9894C65.996 62.9434 67.7722 58.1074 68.7842 53.3946C68.8825 53.0246 68.9813 52.7781 69.0552 52.7781ZM65.8475 53.37C65.9217 53.4442 65.0829 56.4788 64.5649 58.132C63.553 61.2655 61.8506 65.1885 60.1978 68.1493C59.8025 68.8398 59.2105 69.8515 58.8898 70.4189L58.2731 71.4059L56.8914 70.0739C55.2878 68.5193 53.9798 67.5571 52.3024 66.6933C51.6358 66.3482 51.1179 66.0518 51.1179 66.0028C51.1179 65.8054 55.337 61.9811 58.5692 59.2176C60.8883 57.219 65.7737 53.2961 65.8475 53.37ZM85.4633 61.4383L86.6724 62.2276C89.4352 64.0291 92.692 66.4221 95.1845 68.5193C96.5905 69.6787 99.3044 72.1217 99.8477 72.7138L100.143 73.0349L98.1452 73.6022C86.8447 76.7354 78.1104 79.5236 67.9202 83.2741C66.7853 83.6934 65.823 84.0388 65.7488 84.0388C65.6012 84.0388 65.4774 84.1621 68.0191 81.818C74.533 75.8229 80.3062 69.2101 84.5995 62.7703L85.4633 61.4383ZM80.3065 62.7213C80.3556 62.7705 76.9755 67.5323 74.9521 70.2218C72.5342 73.4294 68.2409 78.808 65.2801 82.3114C64.0468 83.7674 62.986 84.9763 62.9364 85.0011C62.8623 85.0256 62.8377 84.6556 62.8377 84.0881C62.8377 81.1023 62.073 77.9195 60.7404 75.2057C60.1729 74.0708 60.0741 73.7993 60.1979 73.6761C60.6666 73.2564 67.8464 69.1607 72.3861 66.7182C75.4456 65.0898 80.2318 62.6719 80.3065 62.7213ZM49.1191 70.37C49.1933 70.37 49.7608 70.6658 50.4024 71.0115C51.9814 71.875 53.3878 72.8372 54.6461 73.8737C54.6953 73.9229 54.054 74.4412 53.2151 75.0577C50.8711 76.7354 47.3182 79.425 45.246 81.0782C43.0742 82.8054 43.0007 82.8546 43.2472 82.4846C44.8758 79.9926 45.6896 78.5862 46.5535 76.7852C47.3182 75.1816 48.083 73.2816 48.6258 71.6284C48.8231 70.9129 49.07 70.37 49.1191 70.37ZM57.4344 76.8836C57.5574 76.8592 57.7058 77.081 58.3717 78.0681C59.7781 80.1649 60.8637 82.9781 61.1356 85.248L61.1844 85.7416L57.8046 87.0494C51.7592 89.3931 46.1834 91.7126 42.4079 93.4394C41.3473 93.9331 39.4967 94.8211 38.2879 95.4137C37.0788 96.0301 36.0919 96.499 36.0919 96.4744C36.0919 96.4499 36.8566 95.8823 37.7941 95.1912C45.1719 89.8374 51.5621 83.9649 56.3486 78.0928C56.8668 77.4758 57.3358 76.9083 57.3847 76.8837L57.4344 76.8836ZM53.6101 77.8213C53.7088 77.92 50.8961 81.1027 48.9716 83.0518C44.2096 87.9128 39.4969 91.7126 33.6492 95.4137C32.9091 95.8823 32.243 96.3016 32.1688 96.3512C31.996 96.4498 32.218 96.203 34.7841 93.4148C36.4128 91.663 37.6462 90.1826 39.0526 88.3571C39.9902 87.1483 40.163 86.9755 41.5202 86.0128C45.1473 83.3974 53.5113 77.7225 53.6101 77.8213Z" fill="url(#paint2_radial_2094_49)"/>
<defs>
<linearGradient id="paint0_linear_2094_49" x1="24.5585" y1="146.876" x2="36.3621" y2="139.902" gradientUnits="userSpaceOnUse">
<stop stop-color="#909CA9"/>
<stop offset="1" stop-color="#EDEDEE"/>
</linearGradient>
<linearGradient id="paint1_linear_2094_49" x1="24.8288" y1="15.3863" x2="34.3263" y2="15.3863" gradientUnits="userSpaceOnUse">
<stop stop-color="#939FAB"/>
<stop offset="1" stop-color="#DCDEE1"/>
</linearGradient>
<radialGradient id="paint2_radial_2094_49" cx="0" cy="0" r="1" gradientTransform="matrix(-12.1091 -1.81891 -3.6787 24.2181 72.7532 58.945)" gradientUnits="userSpaceOnUse">
<stop stop-color="#EE352C"/>
<stop offset="1" stop-color="#A91D22"/>
</radialGradient>
</defs>
</svg>
